<?xml version="1.0" encoding="UTF-8"?>
<svg version="1.1" xmlns="http://www.w3.org/2000/svg" width="1024" height="1024">
<path d="M0 0 C1.13147461 0.38389893 2.26294922 0.76779785 3.42871094 1.16333008 C16.45700474 5.67399102 29.26384475 10.77850781 42.06001282 15.90423584 C43.58339021 16.5137445 45.10802903 17.12011054 46.63395691 17.72320557 C50.21355304 19.14473177 53.74734463 20.61285975 57.24023438 22.23681641 C57.88905579 22.52692093 58.5378772 22.81702545 59.20635986 23.11592102 C60.93915406 23.89458224 62.65827764 24.7034744 64.37597656 25.51489258 C69.95799246 26.77452888 74.66511121 25.60592588 80.1875 24.375 C81.14186951 24.16369949 82.09623901 23.95239899 83.07952881 23.73469543 C85.99342758 23.0613653 88.89529206 22.34949072 91.796875 21.625 C92.84852844 21.3662207 93.90018188 21.10744141 94.98370361 20.84082031 C98.30268938 20.02308042 101.62010095 19.19915046 104.9375 18.375 C107.17568017 17.82250702 109.41396069 17.27042041 111.65234375 16.71875 C115.75940606 15.70559977 119.86598386 14.69054913 123.97167969 13.671875 C124.86157593 13.45160645 125.75147217 13.23133789 126.66833496 13.00439453 C128.28467595 12.60056383 129.89950762 12.19061451 131.5123291 11.77294922 C138.56727047 9.95258157 144.68955859 9.06782178 151.296875 12.72265625 C157.68666461 18.30712113 159.61860027 27.39975973 161.1875 35.375 C161.8475 35.705 162.5075 36.035 163.1875 36.375 C163.72239685 38.11030579 163.72239685 38.11030579 164.13842773 40.34887695 C165.13598918 45.26596268 166.4985857 50.00020519 167.97265625 54.79296875 C168.50846397 56.55924466 169.04427125 58.32552071 169.58007812 60.09179688 C170.41739241 62.837134 171.25598417 65.58207779 172.0949707 68.3269043 C172.91143961 71.00216818 173.72343358 73.67876167 174.53515625 76.35546875 C174.78620621 77.17121872 175.03725616 77.98696869 175.2959137 78.82743835 C176.31799306 82.20055348 177.18885746 85.38378888 177.72827148 88.8762207 C177.9555896 90.11311646 177.9555896 90.11311646 178.1875 91.375 C178.8475 91.705 179.5075 92.035 180.1875 92.375 C181.33190618 96.58976422 182.10362993 100.69403324 182.63769531 105.03027344 C184.58103934 120.79874674 184.58103934 120.79874674 192.1875 134.375 C202.00181942 141.3346102 215.97022028 142.57508261 227.54589844 144.52636719 C233.13803692 145.49554343 238.3878527 147.10757032 243.6875 149.125 C244.4403125 149.40110107 245.193125 149.67720215 245.96875 149.96166992 C248.05320491 150.73981312 250.12182128 151.54842812 252.1875 152.375 C252.88584961 152.65263184 253.58419922 152.93026367 254.30371094 153.21630859 C263.83385561 157.06207437 273.85722392 161.29953549 282.1875 167.375 C282.84985352 169.4934082 282.84985352 169.4934082 283.1875 171.375 C282.39311114 171.36892447 281.59872229 171.36284895 280.78026104 171.35658932 C254.64529053 171.15766131 228.51020863 170.97720586 202.375 170.8125 C201.36269632 170.80611716 200.35039265 170.79973432 199.3074131 170.79315805 C143.88011871 170.44543578 88.46409848 170.29230574 33.03761339 170.79353142 C30.93655438 170.81250854 28.83549366 170.83128399 26.73443222 170.84999084 C20.48883665 170.90560171 14.24324448 170.96158995 7.99765247 171.01759887 C5.25685762 171.04215512 2.516062 171.06662471 -0.22473359 171.09109783 C-2.25575185 171.10928658 -4.28676859 171.12763881 -6.31778526 171.14600372 C-36.48304295 171.41747973 -66.64805052 171.52764605 -96.81446052 171.55508965 C-101.4434219 171.55976349 -106.07234802 171.57009647 -110.70129395 171.58273315 C-116.80235738 171.59908729 -122.90334814 171.60573421 -129.00443268 171.60413361 C-131.23144158 171.60501577 -133.45845191 171.60921171 -135.68544769 171.61690521 C-138.70835444 171.62659668 -141.73099605 171.62395355 -144.75390625 171.61791992 C-145.63785191 171.62354163 -146.52179756 171.62916334 -147.43252945 171.63495541 C-153.46982727 171.60344849 -153.46982727 171.60344849 -156.8125 169.375 C-149.0579448 162.42264017 -138.96679757 158.35416933 -129.4375 154.4375 C-128.39513184 154.00856445 -127.35276367 153.57962891 -126.27880859 153.13769531 C-77.12633869 133.18419531 -23.07247009 127.45064785 29.55102539 124.96972656 C30.25515564 124.93552109 30.95928589 124.90131561 31.68475342 124.86607361 C33.57844028 124.77567011 35.47244119 124.69191399 37.36645508 124.60864258 C40.13692998 124.55522784 40.13692998 124.55522784 42.1875 123.375 C43.66850811 123.28536153 45.15349424 123.25742075 46.63720703 123.26147461 C48.01841232 123.26158791 48.01841232 123.26158791 49.42752075 123.26170349 C50.92132767 123.26944542 50.92132767 123.26944542 52.4453125 123.27734375 C53.97259476 123.27946617 53.97259476 123.27946617 55.5307312 123.28163147 C58.79135035 123.287241 62.05190151 123.29979512 65.3125 123.3125 C67.51953026 123.31751377 69.72656159 123.32207689 71.93359375 123.32617188 C77.35158581 123.33721352 82.76953805 123.35396095 88.1875 123.375 C86.76986383 123.20821858 85.35191286 123.04411183 83.93383789 122.88110352 C83.14425186 122.78942398 82.35466583 122.69774445 81.54115295 122.60328674 C78.22956219 122.28208719 74.95012788 122.28021721 71.625 122.3125 C70.40683594 122.32152344 69.18867187 122.33054687 67.93359375 122.33984375 C66.57427734 122.35724609 66.57427734 122.35724609 65.1875 122.375 C65.1875 121.715 65.1875 121.055 65.1875 120.375 C64.26195312 120.38660156 63.33640625 120.39820313 62.3828125 120.41015625 C53.65445112 120.48141727 44.96971044 120.26451264 36.25 119.875 C5.43612185 118.58575465 -25.22430354 119.06220927 -55.8125 123.375 C-58.47824153 123.71622916 -61.1452147 124.04595716 -63.8125 124.375 C-62.40346258 116.82040333 -60.6048206 109.40559629 -58.66015625 101.97265625 C-58.35935654 100.81430771 -58.05855682 99.65595917 -57.74864197 98.46250916 C-56.79336845 94.78682214 -55.83416661 91.11217279 -54.875 87.4375 C-54.23478466 84.97467211 -53.59480853 82.51178202 -52.95507812 80.04882812 C-52.3361518 77.66921508 -51.71701803 75.28965599 -51.09765625 72.91015625 C-50.8131813 71.81711685 -50.52870636 70.72407745 -50.23561096 69.59791565 C-48.68914805 63.67444216 -47.11112421 57.76117183 -45.48524475 51.85897827 C-44.32301684 47.56767928 -43.25565942 43.25299594 -42.1875 38.9375 C-41.9709375 38.06673828 -41.754375 37.19597656 -41.53125 36.29882812 C-41.13274139 34.69618392 -40.73472242 33.09341779 -40.33740234 31.49047852 C-39.99861899 30.12510282 -39.65869544 28.7600093 -39.31738281 27.39526367 C-38.96145055 25.97101827 -38.60908022 24.54588038 -38.25927734 23.12011719 C-37.59268967 20.44843807 -36.89080202 17.7872375 -36.1875 15.125 C-35.96449219 14.20847656 -35.74148438 13.29195313 -35.51171875 12.34765625 C-33.72665137 5.72685079 -31.06102423 0.89777639 -25.8125 -3.625 C-17.44431142 -6.41439619 -7.97745188 -2.7611897 0 0 Z M91.1875 123.375 C95.1875 124.375 95.1875 124.375 95.1875 124.375 Z M99.1875 124.375 C99.1875 124.705 99.1875 125.035 99.1875 125.375 C100.8375 125.375 102.4875 125.375 104.1875 125.375 C104.1875 125.045 104.1875 124.715 104.1875 124.375 C102.5375 124.375 100.8875 124.375 99.1875 124.375 Z " fill="#0055E5" transform="translate(447.8125,276.625)"/>
<path d="M0 0 C6.30274249 5.36584834 11.62937941 11.52047757 15.3515625 18.96484375 C16.5478125 18.79984375 17.7440625 18.63484375 18.9765625 18.46484375 C28.62978302 17.41425666 37.96114357 17.37438336 47.3515625 19.96484375 C47.45339844 19.3925 47.55523438 18.82015625 47.66015625 18.23046875 C50.66339138 8.38935927 62.00558209 -0.84327193 70.640625 -5.71875 C84.81372712 -12.60107769 98.97483613 -12.90304492 114.3515625 -11.03515625 C114.3515625 -10.37515625 114.3515625 -9.71515625 114.3515625 -9.03515625 C115.52847656 -8.78765625 116.70539063 -8.54015625 117.91796875 -8.28515625 C122.14853829 -7.22030002 125.66241939 -5.43586271 129.2890625 -3.03515625 C130.19410522 -2.43803833 130.19410522 -2.43803833 131.11743164 -1.82885742 C143.3236414 6.52327462 150.87902634 18.63273998 154.3515625 32.96484375 C156.86075707 50.7933315 153.21162406 66.51304308 142.3515625 80.96484375 C139.9140625 83.65234375 139.9140625 83.65234375 137.3515625 85.96484375 C136.88621094 86.42246094 136.42085937 86.88007812 135.94140625 87.3515625 C124.36350042 98.18984781 109.51831459 102.73745593 93.88671875 102.3046875 C79.48638792 100.9203463 65.23653809 94.26454723 55.37890625 83.5625 C44.83985403 70.05870476 39.98402497 55.09269086 41.3515625 37.96484375 C41.6815625 37.30484375 42.0115625 36.64484375 42.3515625 35.96484375 C35.4215625 35.96484375 28.4915625 35.96484375 21.3515625 35.96484375 C21.4134375 38.68734375 21.4753125 41.40984375 21.5390625 44.21484375 C21.6196151 59.15332334 17.54813143 72.59577408 7.3515625 83.96484375 C6.6915625 83.96484375 6.0315625 83.96484375 5.3515625 83.96484375 C4.8565625 85.44984375 4.8565625 85.44984375 4.3515625 86.96484375 C-7.65277107 97.55841162 -22.34915509 102.51101158 -38.10546875 102.20703125 C-53.89905011 101.12742591 -68.08777025 93.64167908 -78.6484375 81.96484375 C-88.14725275 69.99669702 -92.65770737 55.14197751 -91.6484375 39.96484375 C-89.59465453 23.89257882 -82.71545114 10.40921375 -70.2734375 -0.02734375 C-49.13455815 -15.81375044 -20.97131417 -16.1151249 0 0 Z M-67.0234375 21.77734375 C-73.6234212 31.47106981 -74.76581834 41.54912816 -73.6484375 52.96484375 C-71.48412681 63.29974747 -65.43523162 71.66424495 -56.82421875 77.68359375 C-51.24036687 80.97175069 -45.13277026 83.40098873 -38.6484375 83.96484375 C-37.4728125 84.06796875 -36.2971875 84.17109375 -35.0859375 84.27734375 C-24.42114739 84.09346806 -14.287538 79.36851461 -6.68359375 72.08203125 C0.89959479 63.9056546 3.49017208 55.57379242 4.7265625 44.65234375 C3.48030423 32.39747072 -1.46977117 22.00473864 -10.9609375 14.08984375 C-17.06916712 9.67023733 -24.08993142 6.60812086 -31.6484375 5.96484375 C-32.2775 5.90167969 -32.9065625 5.83851563 -33.5546875 5.7734375 C-47.21511641 5.00627573 -58.52837574 11.46039842 -67.0234375 21.77734375 Z M67.6015625 19.83984375 C60.90983538 27.87296491 57.90200413 36.50646892 58.5390625 46.96484375 C59.86999861 58.89789592 64.64673652 68.6536415 74.0078125 76.39453125 C83.32931834 82.63994016 94.70214586 85.59264465 105.80078125 83.50390625 C116.47691766 80.65470187 126.44873434 74.68441893 132.078125 64.9921875 C137.45403252 54.50789393 139.32196292 44.43709692 136.2890625 32.71484375 C132.66051432 22.43677007 125.4793549 14.82916756 115.98828125 9.68359375 C98.65683167 1.52761748 80.34529994 6.0992389 67.6015625 19.83984375 Z " fill="#0051DA" transform="translate(479.6484375,467.03515625)"/>
<path d="M0 0 C1.921875 0.7734375 1.921875 0.7734375 4 2 C4.69612102 4.01875096 5.37557043 6.0442325 5.98828125 8.08984375 C11.16189517 22.97147454 20.06539189 38.52702648 28.72729492 51.60864258 C29.1472876 52.39779053 29.56728027 53.18693848 30 54 C29.67 54.99 29.34 55.98 29 57 C27.08007812 57.93212891 27.08007812 57.93212891 24.53125 58.7265625 C23.58016357 59.03150635 22.62907715 59.3364502 21.64916992 59.65063477 C20.60994385 59.97217529 19.57071777 60.29371582 18.5 60.625 C16.29731975 61.33196981 14.09552197 62.04169389 11.89453125 62.75390625 C10.7545166 63.1214502 9.61450195 63.48899414 8.43994141 63.86767578 C-0.12295232 66.68632029 -8.57511544 69.83029128 -17.04199219 72.92285156 C-19.93367296 73.97584723 -22.82948566 75.01664367 -25.7265625 76.0546875 C-27.46365021 76.68199118 -29.2006355 77.30957856 -30.9375 77.9375 C-31.73067627 78.21988525 -32.52385254 78.50227051 -33.34106445 78.79321289 C-37.53309621 80.29018362 -37.53309621 80.29018362 -41 83 C-40.65106689 83.76666992 -40.30213379 84.53333984 -39.94262695 85.32324219 C-38.6576001 88.17157097 -37.39067041 91.02707614 -36.13549805 93.88867188 C-35.58859389 95.12557407 -35.03458463 96.35935998 -34.47338867 97.58984375 C-33.6680715 99.35883099 -32.89026318 101.14026038 -32.11328125 102.921875 C-31.63673096 103.99018555 -31.16018066 105.05849609 -30.66918945 106.15917969 C-30 109 -30 109 -30.99291992 111.25488281 C-33.52602816 113.45737128 -35.78703094 114.0550378 -39 115 C-43.82026276 117.23177108 -48.5315672 119.68630633 -53.25 122.125 C-53.93539856 122.47869659 -54.62079712 122.83239319 -55.32696533 123.19680786 C-82.9704691 137.51707412 -109.68718633 154.52360625 -134 174 C-135.17591709 174.92336217 -136.35306035 175.84516434 -137.53125 176.765625 C-144.39299776 182.12856721 -151.21321394 187.54242319 -158 193 C-158.765625 191.390625 -158.765625 191.390625 -159 189 C-157.67084547 186.74409553 -156.34168683 184.80730597 -154.75 182.75 C-153.82393891 181.50638475 -152.89952354 180.26154271 -151.9765625 179.015625 C-151.48961914 178.36400391 -151.00267578 177.71238281 -150.50097656 177.04101562 C-147.95918104 173.58470291 -145.54447435 170.04250682 -143.125 166.5 C-142.67350586 165.84225586 -142.22201172 165.18451172 -141.75683594 164.50683594 C-139.76504599 161.60146252 -137.79142536 158.68657228 -135.83984375 155.75390625 C-132.55430163 150.83605658 -129.03937112 146.17629317 -125.16796875 141.703125 C-124.66789307 141.12377197 -124.16781738 140.54441895 -123.65258789 139.94750977 C-122.64427872 138.78578677 -121.62924336 137.62986349 -120.60717773 136.48022461 C-117.6363746 133.23200583 -117.6363746 133.23200583 -117 129 C-116.01 128.67 -115.02 128.34 -114 128 C-112.24730097 125.95123694 -110.61508175 123.9026826 -109 121.75 C-105.21538697 116.81382408 -101.35852062 111.97461188 -97.3125 107.25 C-93.54312462 102.8361915 -89.85332075 98.37406028 -86.25390625 93.8203125 C-84.40503923 91.50682552 -82.53597602 89.2147496 -80.65234375 86.9296875 C-80.06114746 86.21014893 -79.46995117 85.49061035 -78.86083984 84.74926758 C-77.6783753 83.31139968 -76.49259195 81.87625352 -75.30322266 80.4440918 C-74.76101074 79.78320557 -74.21879883 79.12231934 -73.66015625 78.44140625 C-73.17168213 77.85045166 -72.68320801 77.25949707 -72.17993164 76.65063477 C-70.80044222 74.89204903 -70.80044222 74.89204903 -70 72 C-68.35697047 70.31002677 -66.68528688 68.64783606 -65 67 C-63.96506923 65.86688349 -62.94460645 64.7204168 -61.9375 63.5625 C-61.47214844 63.02753906 -61.00679687 62.49257813 -60.52734375 61.94140625 C-58.85083502 59.92509564 -58.85083502 59.92509564 -57.41796875 57.05859375 C-54.06573498 52.81820757 -50.30292914 51.48794835 -45.375 49.5 C-43.56957565 48.73395438 -41.76615873 47.96315928 -39.96484375 47.1875 C-39.10487793 46.81753906 -38.24491211 46.44757812 -37.35888672 46.06640625 C-33.63127176 44.38122491 -30.19995543 42.32185163 -26.77734375 40.09375 C-25 39 -25 39 -22 38 C-22 37.34 -22 36.68 -22 36 C-21.030625 35.2575 -20.06125 34.515 -19.0625 33.75 C-8.85729356 25.19745857 -4.06504543 12.27484306 0 0 Z " fill="#0052DE" transform="translate(646,527)"/>
<path d="M0 0 C2 1 2 1 2.859375 3.3359375 C3.30023438 4.84027344 3.30023438 4.84027344 3.75 6.375 C7.31637583 17.59567698 7.31637583 17.59567698 15 26 C15 26.66 15 27.32 15 28 C22.50555423 38.50777592 33.06102826 43.78673859 44.75 48.375 C54.0071766 52.03037283 58.44514724 55.66772086 64 64 C65.485 64.99 65.485 64.99 67 66 C67 66.66 67 67.32 67 68 C68.4073632 69.81160582 69.87827413 71.57399533 71.375 73.3125 C75.02521723 77.59787716 78.54261562 81.94731584 81.9375 86.4375 C85.28536892 90.8522722 88.75767339 95.11616876 92.375 99.3125 C101.03867426 109.39596856 108.81043499 120.20633308 116.4765625 131.05859375 C117.86219171 133.10924959 117.86219171 133.10924959 120 134 C121.48314991 136.2572026 122.70518817 138.6261783 124 141 C124.66 141 125.32 141 126 141 C128.22731031 148.36725718 124.95028658 154.21127828 122 161 C120.33333333 161 118.66666667 161 117 161 C115.83182833 159.82122786 114.66638343 158.63960658 113.51611328 157.44335938 C110.76807751 154.82719392 107.60020264 152.82737007 104.4375 150.75 C103.4484668 150.08097656 103.4484668 150.08097656 102.43945312 149.3984375 C101.79814453 148.97304688 101.15683594 148.54765625 100.49609375 148.109375 C99.92044678 147.72749023 99.3447998 147.34560547 98.75170898 146.95214844 C97.02017526 145.90553854 97.02017526 145.90553854 94.96899414 145.55566406 C92.55642914 144.87482117 91.6979216 143.80807821 90 142 C88.78616118 141.20327761 87.54258976 140.4505479 86.27734375 139.73828125 C85.57416016 139.34189453 84.87097656 138.94550781 84.14648438 138.53710938 C83.05303711 137.93092773 83.05303711 137.93092773 81.9375 137.3125 C81.20466797 136.89677734 80.47183594 136.48105469 79.71679688 136.05273438 C76.07051757 133.79595522 76.07051757 133.79595522 72 133 C72 132.34 72 131.68 72 131 C71.36835938 130.76152344 70.73671875 130.52304687 70.0859375 130.27734375 C65.85710688 128.52692905 61.75173643 126.53962837 57.625 124.5625 C50.89003978 121.3295403 50.89003978 121.3295403 44.05859375 118.30859375 C41.1766183 117.07556466 38.6644698 115.63967372 36 114 C34.00757511 112.9849911 32.00925805 111.98126556 30 111 C30.60421177 107.02946554 31.86606023 104.03481482 33.75 100.5 C37.00787564 94.17311107 39.56494035 87.68025214 42 81 C40.02 81 38.04 81 36 81 C36 80.34 36 79.68 36 79 C35.38861176 78.82327255 34.77722351 78.6465451 34.14730835 78.46446228 C28.16907369 76.70792201 22.31613368 74.73626474 16.4765625 72.56640625 C15.60913422 72.24719711 14.74170593 71.92798798 13.84799194 71.59910583 C11.10594656 70.58971964 8.36535979 69.5764525 5.625 68.5625 C2.0138589 67.22818464 -1.59829819 65.89665905 -5.2109375 64.56640625 C-6.06983582 64.248461 -6.92873413 63.93051575 -7.81365967 63.60293579 C-13.49345018 61.51217523 -19.19243147 59.60320102 -25.00244141 57.90209961 C-25.99123291 57.4555603 -25.99123291 57.4555603 -27 57 C-28 54 -28 54 -27.1706543 51.84960938 C-26.72633057 51.02267578 -26.28200684 50.19574219 -25.82421875 49.34375 C-25.08389404 47.94733276 -25.08389404 47.94733276 -24.32861328 46.52270508 C-23.7870459 45.5252124 -23.24547852 44.52771973 -22.6875 43.5 C-22.14077637 42.47350342 -21.59405273 41.44700684 -21.03076172 40.3894043 C-19.90483431 38.27620808 -18.77492056 36.1651312 -17.64111328 34.05615234 C-15.27755492 29.65463143 -12.95018374 25.23437599 -10.625 20.8125 C-10.01458862 19.65560669 -10.01458862 19.65560669 -9.3918457 18.4753418 C-6.17085686 12.36082138 -3.04616452 6.20377408 0 0 Z " fill="#0053E2" transform="translate(376,527)"/>
<path d="M0 0 C0.721875 0.00257813 1.44375 0.00515625 2.1875 0.0078125 C2.909375 0.00523437 3.63125 0.00265625 4.375 0 C6.1875 0.1328125 6.1875 0.1328125 7.1875 1.1328125 C7.42403523 3.65877509 7.60923692 6.16388457 7.75 8.6953125 C7.79318359 9.40623047 7.83636719 10.11714844 7.88085938 10.84960938 C7.98721777 12.61043162 8.08788846 14.3715957 8.1875 16.1328125 C8.94675781 16.08640625 9.70601563 16.04 10.48828125 15.9921875 C11.97908203 15.93804688 11.97908203 15.93804688 13.5 15.8828125 C14.48613281 15.83640625 15.47226562 15.79 16.48828125 15.7421875 C19.1875 16.1328125 19.1875 16.1328125 21.04296875 18.1484375 C21.42066406 18.80328125 21.79835938 19.458125 22.1875 20.1328125 C21.8575 20.7928125 21.5275 21.4528125 21.1875 22.1328125 C20.8575 21.8028125 20.5275 21.4728125 20.1875 21.1328125 C20.18972061 21.77539001 20.19194122 22.41796753 20.19422913 23.08001709 C20.2163394 29.76330001 20.23143067 36.44657256 20.24243164 43.12988281 C20.24746278 45.62467877 20.25428834 48.11947178 20.26293945 50.61425781 C20.27505827 54.19857512 20.2807405 57.78285346 20.28515625 61.3671875 C20.29031754 62.48397888 20.29547882 63.60077026 20.30079651 64.75140381 C20.30087204 65.79218079 20.30094757 66.83295776 20.30102539 67.90527344 C20.303246 68.82016541 20.30546661 69.73505737 20.30775452 70.67767334 C20.1875 73.1328125 20.1875 73.1328125 19.1875 77.1328125 C13.2475 77.6278125 13.2475 77.6278125 7.1875 78.1328125 C7.21070313 79.26460937 7.23390625 80.39640625 7.2578125 81.5625 C7.27656901 83.04426425 7.29476934 84.52603562 7.3125 86.0078125 C7.32925781 86.75417969 7.34601563 87.50054688 7.36328125 88.26953125 C7.3808959 90.22475711 7.29070189 92.18023271 7.1875 94.1328125 C6.1975 95.1228125 6.1975 95.1228125 5.1875 96.1328125 C-1.38942308 95.55588942 -1.38942308 95.55588942 -2.8125 94.1328125 C-2.88575168 91.27013683 -2.90488205 88.4320935 -2.875 85.5703125 C-2.86823242 84.36084961 -2.86823242 84.36084961 -2.86132812 83.12695312 C-2.84950518 81.12887494 -2.83156914 79.13083467 -2.8125 77.1328125 C-6.7725 77.1328125 -10.7325 77.1328125 -14.8125 77.1328125 C-16.09045287 57.07878278 -15.55121118 37.19359495 -14.8125 17.1328125 C-13.37609829 16.93707642 -11.93830496 16.75153434 -10.5 16.5703125 C-9.69949219 16.46589844 -8.89898437 16.36148438 -8.07421875 16.25390625 C-5.8125 16.1328125 -5.8125 16.1328125 -2.8125 17.1328125 C-2.82410156 15.98941406 -2.83570313 14.84601562 -2.84765625 13.66796875 C-2.85703288 12.17708496 -2.86613321 10.68619941 -2.875 9.1953125 C-2.88337891 8.44056641 -2.89175781 7.68582031 -2.90039062 6.90820312 C-2.90902441 4.98286937 -2.86474333 3.05745669 -2.8125 1.1328125 C-1.8125 0.1328125 -1.8125 0.1328125 0 0 Z " fill="#0056E8" transform="translate(376.8125,602.8671875)"/>
<path d="M0 0 C2 2 2 2 2.1953125 5.4765625 C2.18201493 6.85950968 2.15816232 8.24238654 2.125 9.625 C2.11597656 10.33140625 2.10695313 11.0378125 2.09765625 11.765625 C2.07407603 13.51056098 2.03820461 15.25532295 2 17 C5.63 16.67 9.26 16.34 13 16 C13 36.46 13 56.92 13 78 C9.53278671 79.73360665 5.76147685 78.48361845 2 78 C2 83.61 2 89.22 2 95 C-0.98212913 96.49106457 -3.71609658 96.11941467 -7 96 C-9.05922402 93.94077598 -8.41427579 89.78291876 -8.5625 86.9375 C-8.60568359 86.17888672 -8.64886719 85.42027344 -8.69335938 84.63867188 C-8.79973633 82.75934562 -8.90039934 80.87969756 -9 79 C-12.3 78.67 -15.6 78.34 -19 78 C-19 77.34 -19 76.68 -19 76 C-19.66 75.67 -20.32 75.34 -21 75 C-20.67 74.01 -20.34 73.02 -20 72 C-20.144375 71.278125 -20.28875 70.55625 -20.4375 69.8125 C-21.37411235 65.12943823 -21.52461725 60.57385174 -20 56 C-19.9146987 53.12305329 -19.88414355 50.27099818 -19.90234375 47.39453125 C-19.9037587 46.55532639 -19.90517365 45.71612152 -19.90663147 44.85148621 C-19.91222785 42.17178784 -19.92477965 39.4921731 -19.9375 36.8125 C-19.94251547 34.99544392 -19.94707829 33.17838652 -19.95117188 31.36132812 C-19.96219609 26.90751987 -19.97945822 22.45377411 -20 18 C-17.15105645 17.24602135 -14.70234746 16.88829421 -11.75 16.9375 C-9.89375 16.9684375 -9.89375 16.9684375 -8 17 C-8.02320313 16.01257813 -8.04640625 15.02515625 -8.0703125 14.0078125 C-8.08835937 12.72648438 -8.10640625 11.44515625 -8.125 10.125 C-8.14820313 8.84882812 -8.17140625 7.57265625 -8.1953125 6.2578125 C-8 3 -8 3 -6 1 C-3 0.25 -3 0.25 0 0 Z " fill="#0056E7" transform="translate(648,602)"/>
<path d="M0 0 C1.39744246 1.88654732 1.8537919 3.38949304 2.25 5.6875 C5.59252724 5.76177838 8.0535914 5.75296953 11.25 4.6875 C12.24 5.3475 13.23 6.0075 14.25 6.6875 C14.47107787 9.4760289 14.53107535 12.03403181 14.4375 14.8125 C14.41719727 15.94365234 14.41719727 15.94365234 14.39648438 17.09765625 C14.36109985 18.96124127 14.30729167 20.82445978 14.25 22.6875 C14.91 23.0175 15.57 23.3475 16.25 23.6875 C15.59 23.6875 14.93 23.6875 14.25 23.6875 C14.25 35.8975 14.25 48.1075 14.25 60.6875 C7.25 61.6875 7.25 61.6875 3.25 60.6875 C3.25 66.6275 3.25 72.5675 3.25 78.6875 C-0.68670488 79.99973496 -2.87488144 78.93046256 -6.75 77.6875 C-6.75 73.0675 -6.75 68.4475 -6.75 63.6875 C-10.42363066 62.76909233 -14.00212088 62.19202219 -17.75 61.6875 C-18.51619254 58.28360206 -18.87614399 55.14005839 -18.87939453 51.65356445 C-18.88254669 50.67938065 -18.88569885 49.70519684 -18.88894653 48.70149231 C-18.8869223 47.66175766 -18.88489807 46.62202301 -18.8828125 45.55078125 C-18.88376923 44.47499313 -18.88472595 43.39920502 -18.88571167 42.29081726 C-18.886391 40.02224672 -18.88455397 37.75367421 -18.88037109 35.48510742 C-18.87500369 32.00239742 -18.88033252 28.51981546 -18.88671875 25.03710938 C-18.88605823 22.83333305 -18.88477762 20.6295568 -18.8828125 18.42578125 C-18.88483673 17.37997391 -18.88686096 16.33416656 -18.88894653 15.25666809 C-18.88579437 14.29194077 -18.88264221 13.32721344 -18.87939453 12.33325195 C-18.87859894 11.48229446 -18.87780334 10.63133698 -18.87698364 9.7545929 C-18.75 7.6875 -18.75 7.6875 -17.75 5.6875 C-16.326875 5.7803125 -16.326875 5.7803125 -14.875 5.875 C-13.328125 5.7821875 -13.328125 5.7821875 -11.75 5.6875 C-11.09 4.6975 -10.43 3.7075 -9.75 2.6875 C-10.08 2.0275 -10.41 1.3675 -10.75 0.6875 C-9.31853622 0.27036485 -7.87941114 -0.1205497 -6.4375 -0.5 C-5.63699219 -0.72042969 -4.83648437 -0.94085937 -4.01171875 -1.16796875 C-1.75 -1.3125 -1.75 -1.3125 0 0 Z " fill="#0057E8" transform="translate(430.75,656.3125)"/>
<path d="M0 0 C3.3 0 6.6 0 10 0 C10 1.98 10 3.96 10 6 C10.71027344 5.98839844 11.42054688 5.97679687 12.15234375 5.96484375 C13.07144531 5.95582031 13.99054687 5.94679688 14.9375 5.9375 C15.85402344 5.92589844 16.77054688 5.91429687 17.71484375 5.90234375 C20 6 20 6 21 7 C21.09844922 8.53879843 21.12798599 10.08207958 21.12939453 11.62402344 C21.13254669 12.60884705 21.13569885 13.59367065 21.13894653 14.6083374 C21.1369223 15.68117981 21.13489807 16.75402222 21.1328125 17.859375 C21.13376923 18.95590393 21.13472595 20.05243286 21.13571167 21.18218994 C21.13639389 23.50915585 21.13453668 25.83612365 21.13037109 28.16308594 C21.1250438 31.72074696 21.13030411 35.27828054 21.13671875 38.8359375 C21.13605757 41.09375028 21.1347756 43.35156298 21.1328125 45.609375 C21.13483673 46.67412048 21.13686096 47.73886597 21.13894653 48.83587646 C21.13421829 50.33202484 21.13421829 50.33202484 21.12939453 51.85839844 C21.12859894 52.7325238 21.12780334 53.60664917 21.12698364 54.50726318 C20.99542898 57.08973078 20.56883917 59.48064842 20 62 C17.03 62 14.06 62 11 62 C11 62.66 11 63.32 11 64 C10.34 64 9.68 64 9 64 C9 69.28 9 74.56 9 80 C2.06640625 80.09765625 2.06640625 80.09765625 0 80 C-1 79 -1 79 -1.09765625 75.62109375 C-1.09098369 74.22652923 -1.07902532 72.83198257 -1.0625 71.4375 C-1.05798828 70.72658203 -1.05347656 70.01566406 -1.04882812 69.28320312 C-1.03700864 67.52209987 -1.01907263 65.76103964 -1 64 C-2.98 64 -4.96 64 -7 64 C-6.01 63.505 -6.01 63.505 -5 63 C-7.00093053 61.79481757 -7.00093053 61.79481757 -9.5 62.125 C-10.325 62.08375 -11.15 62.0425 -12 62 C-12.66 61.01 -13.32 60.02 -14 59 C-13.67 58.01 -13.34 57.02 -13 56 C-12.88528988 54.38975487 -12.8237226 52.77544145 -12.79467773 51.16137695 C-12.77473251 50.1805867 -12.75478729 49.19979645 -12.73423767 48.18928528 C-12.70916893 46.60478828 -12.70916893 46.60478828 -12.68359375 44.98828125 C-12.66281265 43.90491989 -12.64203156 42.82155853 -12.62062073 41.70536804 C-12.55518203 38.24114384 -12.49626647 34.7768432 -12.4375 31.3125 C-12.39430939 28.96548685 -12.35069493 26.61848147 -12.30664062 24.27148438 C-12.19950639 18.51440146 -12.09822273 12.75724158 -12 7 C-8.04 7 -4.08 7 0 7 C0 4.69 0 2.38 0 0 Z M-2 61 C-1 63 -1 63 -1 63 Z " fill="#0056E8" transform="translate(590,656)"/>
<path d="M0 0 C0.33 6.27 0.66 12.54 1 19 C2.98 19.66 4.96 20.32 7 21 C7.02468447 25.80549747 7.04285255 30.61095818 7.05493164 35.41650391 C7.05996621 37.05192711 7.06679427 38.6873458 7.07543945 40.32275391 C7.08754335 42.67090975 7.093237 45.01900619 7.09765625 47.3671875 C7.10281754 48.10057343 7.10797882 48.83395935 7.11329651 49.58956909 C7.11387171 54.77225659 7.11387171 54.77225659 6 57 C4.35 57 2.7 57 1 57 C0.87882813 57.71027344 0.75765625 58.42054688 0.6328125 59.15234375 C0.46523438 60.07144531 0.29765625 60.99054687 0.125 61.9375 C-0.11863281 63.31228516 -0.11863281 63.31228516 -0.3671875 64.71484375 C-0.68042969 65.84599609 -0.68042969 65.84599609 -1 67 C-1.99 67.495 -1.99 67.495 -3 68 C-3 67.34 -3 66.68 -3 66 C-4.32 66.99 -5.64 67.98 -7 69 C-10.57142857 61.71428571 -10.57142857 61.71428571 -9 57 C-10.98 57 -12.96 57 -15 57 C-15 44.79 -15 32.58 -15 20 C-13.02 20 -11.04 20 -9 20 C-9.66 19.67 -10.32 19.34 -11 19 C-11 16.03 -11 13.06 -11 10 C-10.67 10 -10.34 10 -10 10 C-9.79029441 5.85906302 -9.79029441 5.85906302 -11 2 C-8 0 -8 0 0 0 Z " fill="#0158E7" transform="translate(555,683)"/>
<path d="M0 0 C2.64 0 5.28 0 8 0 C8 6.6 8 13.2 8 20 C9.98 19.67 11.96 19.34 14 19 C14.0741205 24.35682133 14.12858776 29.71334462 14.16479492 35.07055664 C14.1798876 36.89320067 14.20036395 38.71580836 14.22631836 40.53833008 C14.26268103 43.157155 14.27972124 45.77550007 14.29296875 48.39453125 C14.30845261 49.21025101 14.32393646 50.02597076 14.33988953 50.8664093 C14.34160054 56.60944422 14.34160054 56.60944422 12.47871399 58.73930359 C11.99073837 59.1553334 11.50276276 59.57136322 11 60 C11 59.34 11 58.68 11 58 C9.515 57.505 9.515 57.505 8 57 C8.185625 57.7425 8.37125 58.485 8.5625 59.25 C8.99203108 61.94990963 8.85122974 63.44631077 8 66 C7.34 66 6.68 66 6 66 C6 66.66 6 67.32 6 68 C4.125 68.625 4.125 68.625 2 69 C-0.5654594 66.4345406 -0.54046087 64.52313332 -1 61 C-2.32 61 -3.64 61 -5 61 C-5.33333333 59.66666667 -5.66666667 58.33333333 -6 57 C-6.17313721 56.4438501 -6.34627441 55.8877002 -6.5246582 55.31469727 C-7.60249115 50.06614351 -7.1858884 44.53771903 -7.18530273 39.19116211 C-7.1874959 36.94170395 -7.20569057 34.69273129 -7.22460938 32.44335938 C-7.22754238 31.01302251 -7.2295278 29.58268332 -7.23046875 28.15234375 C-7.23457764 26.85288818 -7.23868652 25.55343262 -7.24291992 24.21459961 C-7 21 -7 21 -5 18 C-4.34 18 -3.68 18 -3 18 C-3.33 16.35 -3.66 14.7 -4 13 C-3.34 13 -2.68 13 -2 13 C-1.93941406 12.14535156 -1.87882812 11.29070313 -1.81640625 10.41015625 C-1.73261719 9.30542969 -1.64882813 8.20070313 -1.5625 7.0625 C-1.48128906 5.96035156 -1.40007812 4.85820313 -1.31640625 3.72265625 C-1 1 -1 1 0 0 Z " fill="#0057E6" transform="translate(469,683)"/>
<path d="M0 0 C3.19138475 0.66456753 5.81452197 1.77866214 8.6875 3.3125 C9.47511719 3.72113281 10.26273438 4.12976563 11.07421875 4.55078125 C13.38561487 6.29018888 13.45319983 7.24982372 14 10 C12.80841671 9.99088671 12.80841671 9.99088671 11.59276104 9.98158932 C-14.54220947 9.78266131 -40.67729137 9.60220586 -66.8125 9.4375 C-67.82480368 9.43111716 -68.83710735 9.42473432 -69.8800869 9.41815805 C-125.30738129 9.07043578 -180.72340152 8.91730574 -236.14988661 9.41853142 C-238.25094562 9.43750854 -240.35200634 9.45628399 -242.45306778 9.47499084 C-248.69866335 9.53060171 -254.94425552 9.58658995 -261.18984753 9.64259887 C-263.93064238 9.66715512 -266.671438 9.69162471 -269.41223359 9.71609783 C-271.44325185 9.73428658 -273.47426859 9.75263881 -275.50528526 9.77100372 C-305.67054295 10.04247973 -335.83555052 10.15264605 -366.00196052 10.18008965 C-370.6309219 10.18476349 -375.25984802 10.19509647 -379.88879395 10.20773315 C-385.98985738 10.22408729 -392.09084814 10.23073421 -398.19193268 10.22913361 C-400.41894158 10.23001577 -402.64595191 10.23421171 -404.87294769 10.24190521 C-407.89585444 10.25159668 -410.91849605 10.24895355 -413.94140625 10.24291992 C-415.26732473 10.25135249 -415.26732473 10.25135249 -416.62002945 10.25995541 C-422.65732727 10.22844849 -422.65732727 10.22844849 -426 8 C-423.6875 5.9375 -423.6875 5.9375 -421 4 C-420.01 4.33 -419.02 4.66 -418 5 C-418.33 5.33 -418.66 5.66 -419 6 C-277.76 6 -136.52 6 9 6 C6.03 4.35 3.06 2.7 0 1 C0 0.67 0 0.34 0 0 Z " fill="#02358C" transform="translate(717,438)"/>
<path d="M0 0 C0.66 0 1.32 0 2 0 C2 0.66 2 1.32 2 2 C140.93 2 279.86 2 423 2 C423 2.33 423 2.66 423 3 C282.42 3 141.84 3 -3 3 C-2.01 2.01 -1.02 1.02 0 0 Z " fill="#0064FC" transform="translate(299,442)"/>
<path d="M0 0 C8.89344525 -0.33398256 17.40024033 0.70143342 26.1875 2 C27.5344044 2.19341164 28.88140936 2.3861244 30.22851562 2.578125 C33.48672809 3.04525223 36.74376042 3.51934593 40 4 C40 4.33 40 4.66 40 5 C38.93163406 5.01030746 37.86326813 5.02061493 36.76252747 5.03123474 C26.60016698 5.12980163 16.43785651 5.23259894 6.2755785 5.33933926 C1.05344729 5.39405975 -4.16868974 5.44738685 -9.39086914 5.49731445 C-14.44841243 5.54572288 -19.50590211 5.59807211 -24.56337929 5.65294075 C-26.47464949 5.67302452 -28.38593416 5.69178454 -30.29723167 5.70907402 C-50.42840922 5.89300958 -70.45297222 6.8256312 -90.5 8.6875 C-91.871492 8.81430145 -91.871492 8.81430145 -93.27069092 8.94366455 C-126.57322716 12.07334551 -159.82276991 17.15362282 -191.38989258 28.54833984 C-192.32986084 28.88172363 -193.2698291 29.21510742 -194.23828125 29.55859375 C-195.06368408 29.86079834 -195.88908691 30.16300293 -196.73950195 30.47436523 C-199.22603693 31.05256048 -200.61340169 30.82724912 -203 30 C-152.92304057 11.49187083 -99.1730116 5.27740353 -46.04760742 3.2902832 C-42.40079288 3.18946854 -42.40079288 3.18946854 -39 2 C-37.51899189 1.91036153 -36.03400576 1.88242075 -34.55029297 1.88647461 C-33.16908768 1.88658791 -33.16908768 1.88658791 -31.75997925 1.88670349 C-30.26617233 1.89444542 -30.26617233 1.89444542 -28.7421875 1.90234375 C-27.21490524 1.90446617 -27.21490524 1.90446617 -25.6567688 1.90663147 C-22.39614965 1.912241 -19.13559849 1.92479512 -15.875 1.9375 C-13.66796974 1.94251377 -11.46093841 1.94707689 -9.25390625 1.95117188 C-3.83591419 1.96221352 1.58203805 1.97896095 7 2 C4.69 1.67 2.38 1.34 0 1 C0 0.67 0 0.34 0 0 Z M10 2 C14 3 14 3 14 3 Z M18 3 C18 3.33 18 3.66 18 4 C19.65 4 21.3 4 23 4 C23 3.67 23 3.34 23 3 C21.35 3 19.7 3 18 3 Z " fill="#02318A" transform="translate(529,398)"/>
<path d="M0 0 C2 2 2 2 2.1953125 5.4765625 C2.18201493 6.85950968 2.15816232 8.24238654 2.125 9.625 C2.11597656 10.33140625 2.10695313 11.0378125 2.09765625 11.765625 C2.07407603 13.51056098 2.03820461 15.25532295 2 17 C5.63 16.67 9.26 16.34 13 16 C13 36.46 13 56.92 13 78 C9.53278671 79.73360665 5.76147685 78.48361845 2 78 C2 83.61 2 89.22 2 95 C-0.98212913 96.49106457 -3.71609658 96.11941467 -7 96 C-9.05922402 93.94077598 -8.41427579 89.78291876 -8.5625 86.9375 C-8.60568359 86.17888672 -8.64886719 85.42027344 -8.69335938 84.63867188 C-8.79973633 82.75934562 -8.90039934 80.87969756 -9 79 C-12.3 78.67 -15.6 78.34 -19 78 C-19 77.34 -19 76.68 -19 76 C-19.66 75.67 -20.32 75.34 -21 75 C-20.67 74.01 -20.34 73.02 -20 72 C-20.144375 71.278125 -20.28875 70.55625 -20.4375 69.8125 C-21.37411235 65.12943823 -21.52461725 60.57385174 -20 56 C-19.9146987 53.12305329 -19.88414355 50.27099818 -19.90234375 47.39453125 C-19.9037587 46.55532639 -19.90517365 45.71612152 -19.90663147 44.85148621 C-19.91222785 42.17178784 -19.92477965 39.4921731 -19.9375 36.8125 C-19.94251547 34.99544392 -19.94707829 33.17838652 -19.95117188 31.36132812 C-19.96219609 26.90751987 -19.97945822 22.45377411 -20 18 C-17.15105645 17.24602135 -14.70234746 16.88829421 -11.75 16.9375 C-9.89375 16.9684375 -9.89375 16.9684375 -8 17 C-8.02320313 16.01257813 -8.04640625 15.02515625 -8.0703125 14.0078125 C-8.08835937 12.72648438 -8.10640625 11.44515625 -8.125 10.125 C-8.14820313 8.84882812 -8.17140625 7.57265625 -8.1953125 6.2578125 C-8 3 -8 3 -6 1 C-3 0.25 -3 0.25 0 0 Z M-6 3 C-6 8.28 -6 13.56 -6 19 C-9.96 19 -13.92 19 -18 19 C-18 38.14 -18 57.28 -18 77 C-14.04 77 -10.08 77 -6 77 C-6 82.61 -6 88.22 -6 94 C-3.69 94 -1.38 94 1 94 C1 88.39 1 82.78 1 77 C4.63 77 8.26 77 12 77 C12 57.86 12 38.72 12 19 C8.37 19 4.74 19 1 19 C1 13.72 1 8.44 1 3 C-1.31 3 -3.62 3 -6 3 Z " fill="#04338A" transform="translate(648,602)"/>
<path d="M0 0 C0.721875 0.00257813 1.44375 0.00515625 2.1875 0.0078125 C2.909375 0.00523437 3.63125 0.00265625 4.375 0 C6.1875 0.1328125 6.1875 0.1328125 7.1875 1.1328125 C7.42403523 3.65877509 7.60923692 6.16388457 7.75 8.6953125 C7.79318359 9.40623047 7.83636719 10.11714844 7.88085938 10.84960938 C7.98721777 12.61043162 8.08788846 14.3715957 8.1875 16.1328125 C11.1575 16.4628125 14.1275 16.7928125 17.1875 17.1328125 C17.1875 17.4628125 17.1875 17.7928125 17.1875 18.1328125 C13.2275 18.1328125 9.2675 18.1328125 5.1875 18.1328125 C5.1875 12.8528125 5.1875 7.5728125 5.1875 2.1328125 C2.8775 2.1328125 0.5675 2.1328125 -1.8125 2.1328125 C-1.8125 7.4128125 -1.8125 12.6928125 -1.8125 18.1328125 C-5.4425 18.1328125 -9.0725 18.1328125 -12.8125 18.1328125 C-12.8125 37.2728125 -12.8125 56.4128125 -12.8125 76.1328125 C-9.1825 76.1328125 -5.5525 76.1328125 -1.8125 76.1328125 C-1.8125 81.7428125 -1.8125 87.3528125 -1.8125 93.1328125 C0.4975 93.1328125 2.8075 93.1328125 5.1875 93.1328125 C5.1875 87.5228125 5.1875 81.9128125 5.1875 76.1328125 C9.4775 76.1328125 13.7675 76.1328125 18.1875 76.1328125 C18.1875 56.9928125 18.1875 37.8528125 18.1875 18.1328125 C19.1775 18.1328125 20.1675 18.1328125 21.1875 18.1328125 C21.6825 20.1128125 21.6825 20.1128125 22.1875 22.1328125 C21.5275 21.8028125 20.8675 21.4728125 20.1875 21.1328125 C20.18972061 21.77539001 20.19194122 22.41796753 20.19422913 23.08001709 C20.2163394 29.76330001 20.23143067 36.44657256 20.24243164 43.12988281 C20.24746278 45.62467877 20.25428834 48.11947178 20.26293945 50.61425781 C20.27505827 54.19857512 20.2807405 57.78285346 20.28515625 61.3671875 C20.29031754 62.48397888 20.29547882 63.60077026 20.30079651 64.75140381 C20.30087204 65.79218079 20.30094757 66.83295776 20.30102539 67.90527344 C20.303246 68.82016541 20.30546661 69.73505737 20.30775452 70.67767334 C20.1875 73.1328125 20.1875 73.1328125 19.1875 77.1328125 C13.2475 77.6278125 13.2475 77.6278125 7.1875 78.1328125 C7.21070313 79.26460937 7.23390625 80.39640625 7.2578125 81.5625 C7.27656901 83.04426425 7.29476934 84.52603562 7.3125 86.0078125 C7.32925781 86.75417969 7.34601563 87.50054688 7.36328125 88.26953125 C7.3808959 90.22475711 7.29070189 92.18023271 7.1875 94.1328125 C6.1975 95.1228125 6.1975 95.1228125 5.1875 96.1328125 C-1.38942308 95.55588942 -1.38942308 95.55588942 -2.8125 94.1328125 C-2.88575168 91.27013683 -2.90488205 88.4320935 -2.875 85.5703125 C-2.86823242 84.36084961 -2.86823242 84.36084961 -2.86132812 83.12695312 C-2.84950518 81.12887494 -2.83156914 79.13083467 -2.8125 77.1328125 C-6.7725 77.1328125 -10.7325 77.1328125 -14.8125 77.1328125 C-16.09045287 57.07878278 -15.55121118 37.19359495 -14.8125 17.1328125 C-13.37609829 16.93707642 -11.93830496 16.75153434 -10.5 16.5703125 C-9.69949219 16.46589844 -8.89898437 16.36148438 -8.07421875 16.25390625 C-5.8125 16.1328125 -5.8125 16.1328125 -2.8125 17.1328125 C-2.82410156 15.98941406 -2.83570313 14.84601562 -2.84765625 13.66796875 C-2.85703288 12.17708496 -2.86613321 10.68619941 -2.875 9.1953125 C-2.88337891 8.44056641 -2.89175781 7.68582031 -2.90039062 6.90820312 C-2.90902441 4.98286937 -2.86474333 3.05745669 -2.8125 1.1328125 C-1.8125 0.1328125 -1.8125 0.1328125 0 0 Z " fill="#02328A" transform="translate(376.8125,602.8671875)"/>
<path d="M0 0 C2.05078125 0.03255208 4.1015625 0.06510417 6.15234375 0.09765625 C6.15234375 2.07765625 6.15234375 4.05765625 6.15234375 6.09765625 C6.86261719 6.08605469 7.57289063 6.07445312 8.3046875 6.0625 C9.22378906 6.05347656 10.14289062 6.04445313 11.08984375 6.03515625 C12.00636719 6.02355469 12.92289063 6.01195312 13.8671875 6 C16.15234375 6.09765625 16.15234375 6.09765625 17.15234375 7.09765625 C17.25079297 8.63645468 17.28032974 10.17973583 17.28173828 11.72167969 C17.28489044 12.7065033 17.2880426 13.6913269 17.29129028 14.70599365 C17.28926605 15.77883606 17.28724182 16.85167847 17.28515625 17.95703125 C17.28611298 19.05356018 17.2870697 20.15008911 17.28805542 21.27984619 C17.28873764 23.6068121 17.28688043 25.9337799 17.28271484 28.26074219 C17.27738755 31.81840321 17.28264786 35.37593679 17.2890625 38.93359375 C17.28840132 41.19140653 17.28711935 43.44921923 17.28515625 45.70703125 C17.28718048 46.77177673 17.28920471 47.83652222 17.29129028 48.93353271 C17.28656204 50.42968109 17.28656204 50.42968109 17.28173828 51.95605469 C17.28094269 52.83018005 17.28014709 53.70430542 17.27932739 54.60491943 C17.14777273 57.18738703 16.72118292 59.57830467 16.15234375 62.09765625 C13.18234375 62.09765625 10.21234375 62.09765625 7.15234375 62.09765625 C7.15234375 62.75765625 7.15234375 63.41765625 7.15234375 64.09765625 C6.49234375 64.09765625 5.83234375 64.09765625 5.15234375 64.09765625 C5.15234375 69.37765625 5.15234375 74.65765625 5.15234375 80.09765625 C-1.78125 80.1953125 -1.78125 80.1953125 -3.84765625 80.09765625 C-4.84765625 79.09765625 -4.84765625 79.09765625 -4.9453125 75.71875 C-4.93863994 74.32418548 -4.92668157 72.92963882 -4.91015625 71.53515625 C-4.90564453 70.82423828 -4.90113281 70.11332031 -4.89648438 69.38085938 C-4.88466489 67.61975612 -4.86672888 65.85869589 -4.84765625 64.09765625 C-6.82765625 64.09765625 -8.80765625 64.09765625 -10.84765625 64.09765625 C-9.85765625 63.60265625 -9.85765625 63.60265625 -8.84765625 63.09765625 C-10.84858678 61.89247382 -10.84858678 61.89247382 -13.34765625 62.22265625 C-14.17265625 62.18140625 -14.99765625 62.14015625 -15.84765625 62.09765625 C-16.50765625 61.10765625 -17.16765625 60.11765625 -17.84765625 59.09765625 C-17.51765625 58.10765625 -17.18765625 57.11765625 -16.84765625 56.09765625 C-16.73294613 54.48741112 -16.67137885 52.8730977 -16.64233398 51.2590332 C-16.62238876 50.27824295 -16.60244354 49.2974527 -16.58189392 48.28694153 C-16.55682518 46.70244453 -16.55682518 46.70244453 -16.53125 45.0859375 C-16.5104689 44.00257614 -16.48968781 42.91921478 -16.46827698 41.80302429 C-16.40283828 38.33880009 -16.34392272 34.87449945 -16.28515625 31.41015625 C-16.24196564 29.0631431 -16.19835118 26.71613772 -16.15429688 24.36914062 C-16.04716264 18.61205771 -15.94587898 12.85489783 -15.84765625 7.09765625 C-11.55765625 7.09765625 -7.26765625 7.09765625 -2.84765625 7.09765625 C-2.84765625 7.42765625 -2.84765625 7.75765625 -2.84765625 8.09765625 C-6.80765625 8.09765625 -10.76765625 8.09765625 -14.84765625 8.09765625 C-14.84765625 25.25765625 -14.84765625 42.41765625 -14.84765625 60.09765625 C-11.21765625 60.09765625 -7.58765625 60.09765625 -3.84765625 60.09765625 C-3.84765625 66.03765625 -3.84765625 71.97765625 -3.84765625 78.09765625 C-1.53765625 78.09765625 0.77234375 78.09765625 3.15234375 78.09765625 C3.15234375 72.15765625 3.15234375 66.21765625 3.15234375 60.09765625 C7.11234375 60.09765625 11.07234375 60.09765625 15.15234375 60.09765625 C15.15234375 42.93765625 15.15234375 25.77765625 15.15234375 8.09765625 C12.18234375 8.09765625 9.21234375 8.09765625 6.15234375 8.09765625 C5.15234375 7.09765625 5.15234375 7.09765625 5.08984375 4.03515625 C5.11046875 3.06578125 5.13109375 2.09640625 5.15234375 1.09765625 C2.21142788 1.28181057 2.21142788 1.28181057 -0.84765625 2.09765625 C-2.28403323 4.04928743 -2.28403323 4.04928743 -2.84765625 6.09765625 C-2.89037725 4.4315372 -2.88829457 2.7638274 -2.84765625 1.09765625 C-1.84765625 0.09765625 -1.84765625 0.09765625 0 0 Z M-5.84765625 61.09765625 C-4.84765625 63.09765625 -4.84765625 63.09765625 -4.84765625 63.09765625 Z " fill="#022771" transform="translate(593.84765625,655.90234375)"/>
<path d="M0 0 C0.33 6.27 0.66 12.54 1 19 C2.98 19.66 4.96 20.32 7 21 C7.02468447 25.80549747 7.04285255 30.61095818 7.05493164 35.41650391 C7.05996621 37.05192711 7.06679427 38.6873458 7.07543945 40.32275391 C7.08754335 42.67090975 7.093237 45.01900619 7.09765625 47.3671875 C7.10281754 48.10057343 7.10797882 48.83395935 7.11329651 49.58956909 C7.11387171 54.77225659 7.11387171 54.77225659 6 57 C4.35 57 2.7 57 1 57 C0.87882813 57.71027344 0.75765625 58.42054688 0.6328125 59.15234375 C0.46523438 60.07144531 0.29765625 60.99054687 0.125 61.9375 C-0.11863281 63.31228516 -0.11863281 63.31228516 -0.3671875 64.71484375 C-0.68042969 65.84599609 -0.68042969 65.84599609 -1 67 C-1.99 67.495 -1.99 67.495 -3 68 C-3 67.34 -3 66.68 -3 66 C-4.32 66.99 -5.64 67.98 -7 69 C-10.57142857 61.71428571 -10.57142857 61.71428571 -9 57 C-10.98 57 -12.96 57 -15 57 C-15 44.79 -15 32.58 -15 20 C-13.02 20 -11.04 20 -9 20 C-9.66 19.67 -10.32 19.34 -11 19 C-11 16.03 -11 13.06 -11 10 C-10.67 10 -10.34 10 -10 10 C-9.79029441 5.85906302 -9.79029441 5.85906302 -11 2 C-8 0 -8 0 0 0 Z M-8 2 C-8 8.27 -8 14.54 -8 21 C-9.98 21 -11.96 21 -14 21 C-14 32.22 -14 43.44 -14 55 C-11.69 55 -9.38 55 -7 55 C-7 58.3 -7 61.6 -7 65 C-5.35 65 -3.7 65 -2 65 C-2 61.7 -2 58.4 -2 55 C0.31 55 2.62 55 5 55 C5 43.78 5 32.56 5 21 C2.69 21 0.38 21 -2 21 C-2 14.73 -2 8.46 -2 2 C-3.98 2 -5.96 2 -8 2 Z " fill="#043792" transform="translate(555,683)"/>
<path d="M0 0 C2.64 0 5.28 0 8 0 C8 6.6 8 13.2 8 20 C9.98 19.67 11.96 19.34 14 19 C14.0741205 24.35682133 14.12858776 29.71334462 14.16479492 35.07055664 C14.1798876 36.89320067 14.20036395 38.71580836 14.22631836 40.53833008 C14.26268103 43.157155 14.27972124 45.77550007 14.29296875 48.39453125 C14.30845261 49.21025101 14.32393646 50.02597076 14.33988953 50.8664093 C14.34160054 56.60944422 14.34160054 56.60944422 12.47871399 58.73930359 C11.99073837 59.1553334 11.50276276 59.57136322 11 60 C11 59.34 11 58.68 11 58 C9.515 57.505 9.515 57.505 8 57 C8.185625 57.7425 8.37125 58.485 8.5625 59.25 C8.99203108 61.94990963 8.85122974 63.44631077 8 66 C7.34 66 6.68 66 6 66 C6 66.66 6 67.32 6 68 C4.125 68.625 4.125 68.625 2 69 C-0.5654594 66.4345406 -0.54046087 64.52313332 -1 61 C-2.32 61 -3.64 61 -5 61 C-5.33333333 59.66666667 -5.66666667 58.33333333 -6 57 C-6.17313721 56.4438501 -6.34627441 55.8877002 -6.5246582 55.31469727 C-7.60249115 50.06614351 -7.1858884 44.53771903 -7.18530273 39.19116211 C-7.1874959 36.94170395 -7.20569057 34.69273129 -7.22460938 32.44335938 C-7.22754238 31.01302251 -7.2295278 29.58268332 -7.23046875 28.15234375 C-7.23457764 26.85288818 -7.23868652 25.55343262 -7.24291992 24.21459961 C-7 21 -7 21 -5 18 C-4.34 18 -3.68 18 -3 18 C-3.33 16.35 -3.66 14.7 -4 13 C-3.34 13 -2.68 13 -2 13 C-1.93941406 12.14535156 -1.87882812 11.29070313 -1.81640625 10.41015625 C-1.73261719 9.30542969 -1.64882813 8.20070313 -1.5625 7.0625 C-1.48128906 5.96035156 -1.40007812 4.85820313 -1.31640625 3.72265625 C-1 1 -1 1 0 0 Z M1 2 C1 8.27 1 14.54 1 21 C-0.98 21 -2.96 21 -5 21 C-5 32.55 -5 44.1 -5 56 C-3.02 56 -1.04 56 1 56 C1 58.97 1 61.94 1 65 C2.65 65 4.3 65 6 65 C6 61.7 6 58.4 6 55 C8.31 55 10.62 55 13 55 C13 43.78 13 32.56 13 21 C10.69 21 8.38 21 6 21 C6 14.73 6 8.46 6 2 C4.35 2 2.7 2 1 2 Z " fill="#01205C" transform="translate(469,683)"/>
<path d="M0 0 C3.19138475 0.66456753 5.81452197 1.77866214 8.6875 3.3125 C9.47511719 3.72113281 10.26273438 4.12976563 11.07421875 4.55078125 C13 6 13 6 14 10 C-44.74 9.67 -103.48 9.34 -164 9 C-164 8.67 -164 8.34 -164 8 C-163.43040715 7.99576806 -162.8608143 7.99153612 -162.27396107 7.98717594 C-148.11857113 7.88179287 -133.96321062 7.77293897 -119.80787373 7.66066074 C-112.96120076 7.60642954 -106.1145233 7.55326484 -99.26782227 7.50268555 C-63.17256667 7.23514552 -27.08808932 6.77467229 9 6 C6.03 4.35 3.06 2.7 0 1 C0 0.67 0 0.34 0 0 Z " fill="#0342AD" transform="translate(717,438)"/>
<path d="M0 0 C1.32 0.66 2.64 1.32 4 2 C4 7.28 4 12.56 4 18 C4.66 18.33 5.32 18.66 6 19 C5.34 19 4.68 19 4 19 C4 31.21 4 43.42 4 56 C-3 57 -3 57 -7 56 C-7 61.94 -7 67.88 -7 74 C-10.93670488 75.31223496 -13.12488144 74.24296256 -17 73 C-17 68.38 -17 63.76 -17 59 C-20.67363066 58.08159233 -24.25212088 57.50452219 -28 57 C-28.9971257 54.00862289 -29.09229826 52.18249007 -29.02172852 49.06958008 C-29.00163223 48.06876907 -28.98153595 47.06795807 -28.96083069 46.03681946 C-28.93379562 44.95861435 -28.90676056 43.88040924 -28.87890625 42.76953125 C-28.85529526 41.66397385 -28.83168427 40.55841644 -28.80735779 39.4193573 C-28.73070304 35.88360817 -28.64668612 32.34807705 -28.5625 28.8125 C-28.50928115 26.41732842 -28.45654074 24.02214617 -28.40429688 21.62695312 C-28.27508539 15.7511668 -28.13982681 9.87554277 -28 4 C-27.67 4 -27.34 4 -27 4 C-27 20.83 -27 37.66 -27 55 C-23.37 55 -19.74 55 -16 55 C-15.67 60.94 -15.34 66.88 -15 73 C-13.02 73 -11.04 73 -9 73 C-9.01160156 71.78441406 -9.02320313 70.56882812 -9.03515625 69.31640625 C-9.04453278 67.73177236 -9.05363313 66.14713682 -9.0625 64.5625 C-9.07087891 63.76005859 -9.07925781 62.95761719 -9.08789062 62.13085938 C-9.0965143 60.08704779 -9.0522815 58.04316098 -9 56 C-8.67 55.67 -8.34 55.34 -8 55 C-4.37 55 -0.74 55 3 55 C3 37.84 3 20.68 3 3 C-0.96 3 -4.92 3 -9 3 C-8.67 2.34 -8.34 1.68 -8 1 C-7.05125 1.020625 -6.1025 1.04125 -5.125 1.0625 C-2.09333717 1.22551826 -2.09333717 1.22551826 0 0 Z " fill="#042F7C" transform="translate(441,661)"/>
<path d="M0 0 C0.33 0 0.66 0 1 0 C0.42956287 6.12746449 -0.55039112 11.86435075 -2.1171875 17.80859375 C-2.33026047 18.63699265 -2.54333344 19.46539154 -2.76286316 20.31889343 C-3.46098862 23.02666606 -4.16791204 25.73205533 -4.875 28.4375 C-5.36565342 30.3336922 -5.85579832 32.23001604 -6.34545898 34.12646484 C-8.91003491 44.04188998 -11.50837205 53.94852147 -14.10546875 63.85546875 C-14.35516418 64.80810104 -14.60485962 65.76073334 -14.86212158 66.74223328 C-16.06103624 71.31410728 -17.26272603 75.88521667 -18.47021484 80.45483398 C-18.69244217 81.29826859 -18.91466949 82.14170319 -19.14363098 83.01069641 C-19.55341144 84.56583093 -19.96448578 86.12062546 -20.37724304 87.67497253 C-21.71435885 92.75672606 -22.89252077 97.86346537 -24 103 C-22.19015625 102.7834375 -22.19015625 102.7834375 -20.34375 102.5625 C-18.72919444 102.37476098 -17.11460951 102.18727446 -15.5 102 C-14.70851563 101.90460938 -13.91703125 101.80921875 -13.1015625 101.7109375 C-8.02970596 101.12892118 -3.10506141 100.90632915 2 101 C2 101.33 2 101.66 2 102 C-1.33316217 102.48036217 -4.66656013 102.95906904 -8 103.4375 C-8.93457031 103.57220703 -9.86914062 103.70691406 -10.83203125 103.84570312 C-16.21578507 104.6175 -21.60086513 105.34420885 -27 106 C-25.59096258 98.44540333 -23.7923206 91.03059629 -21.84765625 83.59765625 C-21.54685654 82.43930771 -21.24605682 81.28095917 -20.93614197 80.08750916 C-19.98086845 76.41182214 -19.02166661 72.73717279 -18.0625 69.0625 C-17.42228466 66.59967211 -16.78230853 64.13678202 -16.14257812 61.67382812 C-15.5236518 59.29421508 -14.90451803 56.91465599 -14.28515625 54.53515625 C-14.0006813 53.44211685 -13.71620636 52.34907745 -13.42311096 51.22291565 C-11.87664805 45.29944216 -10.29862421 39.38617183 -8.67274475 33.48397827 C-7.51051684 29.19267928 -6.44315942 24.87799594 -5.375 20.5625 C-5.1584375 19.69173828 -4.941875 18.82097656 -4.71875 17.92382812 C-4.32024139 16.32118392 -3.92222242 14.71841779 -3.52490234 13.11547852 C-3.26507568 12.06831665 -3.26507568 12.06831665 -3 11 C-2.8345166 10.32702881 -2.6690332 9.65405762 -2.49853516 8.96069336 C-1.73412842 5.9543513 -0.8596835 2.98023612 0 0 Z " fill="#022F84" transform="translate(411,295)"/>
<path d="M0 0 C0.99 0 1.98 0 3 0 C3.495 1.98 3.495 1.98 4 4 C3.34 3.67 2.68 3.34 2 3 C2.00222061 3.64257751 2.00444122 4.28515503 2.00672913 4.94720459 C2.0288394 11.63048751 2.04393067 18.31376006 2.05493164 24.99707031 C2.05996278 27.49186627 2.06678834 29.98665928 2.07543945 32.48144531 C2.08755827 36.06576262 2.0932405 39.65004096 2.09765625 43.234375 C2.10281754 44.35116638 2.10797882 45.46795776 2.11329651 46.61859131 C2.11337204 47.65936829 2.11344757 48.70014526 2.11352539 49.77246094 C2.115746 50.68735291 2.11796661 51.60224487 2.12025452 52.54486084 C2 55 2 55 1 59 C-4.94 59.495 -4.94 59.495 -11 60 C-10.97679687 61.13179687 -10.95359375 62.26359375 -10.9296875 63.4296875 C-10.91093099 64.91145175 -10.89273066 66.39322312 -10.875 67.875 C-10.85824219 68.62136719 -10.84148437 69.36773438 -10.82421875 70.13671875 C-10.8066041 72.09194461 -10.89679811 74.04742021 -11 76 C-11.99 76.99 -11.99 76.99 -13 78 C-19.57692308 77.42307692 -19.57692308 77.42307692 -21 76 C-21.07325168 73.13732433 -21.09238205 70.299281 -21.0625 67.4375 C-21.05573242 66.22803711 -21.05573242 66.22803711 -21.04882812 64.99414062 C-21.03700518 62.99606244 -21.01906914 60.99802217 -21 59 C-24.63 59 -28.26 59 -32 59 C-32 58.67 -32 58.34 -32 58 C-28.04 58 -24.08 58 -20 58 C-20 63.61 -20 69.22 -20 75 C-17.69 75 -15.38 75 -13 75 C-13 69.39 -13 63.78 -13 58 C-8.71 58 -4.42 58 0 58 C0 38.86 0 19.72 0 0 Z " fill="#022978" transform="translate(395,621)"/>
<path d="M0 0 C3.3 0 6.6 0 10 0 C10 0.66 10 1.32 10 2 C12.97 2.33 15.94 2.66 19 3 C19 3.33 19 3.66 19 4 C18.20867676 3.99777939 17.41735352 3.99555878 16.60205078 3.99327087 C9.07236959 3.97306932 1.5427019 3.95792599 -5.98699951 3.94818783 C-9.85625381 3.94301275 -13.72548535 3.93601533 -17.59472656 3.92456055 C-21.34247047 3.91353738 -25.09019277 3.90768293 -28.83795166 3.90512276 C-30.25376729 3.90330293 -31.669582 3.89975139 -33.08538818 3.89426994 C-41.99938604 3.86119331 -50.79472091 4.19027909 -59.671875 4.97999573 C-62.88454044 4.99930601 -64.36451359 4.74303048 -67 3 C-59.77295383 1.89630436 -52.61473627 1.78128223 -45.3125 1.68359375 C-43.36512939 1.6524221 -43.36512939 1.6524221 -41.37841797 1.62062073 C-37.95250367 1.56583066 -34.52653379 1.51623439 -31.1005249 1.46777344 C-27.59431094 1.41724076 -24.08817618 1.36172174 -20.58203125 1.30664062 C-13.721423 1.19958713 -6.86074298 1.0980284 0 1 C0 0.67 0 0.34 0 0 Z " fill="#052B71" transform="translate(483,392)"/>
<path d="M0 0 C2.05078125 0.03255208 4.1015625 0.06510417 6.15234375 0.09765625 C6.15234375 2.07765625 6.15234375 4.05765625 6.15234375 6.09765625 C6.86261719 6.08605469 7.57289063 6.07445312 8.3046875 6.0625 C9.22378906 6.05347656 10.14289062 6.04445313 11.08984375 6.03515625 C12.00636719 6.02355469 12.92289063 6.01195312 13.8671875 6 C16.15234375 6.09765625 16.15234375 6.09765625 17.15234375 7.09765625 C17.24561091 8.66312673 17.26979957 10.23278397 17.26586914 11.80102539 C17.26579361 12.80198746 17.26571808 13.80294952 17.26564026 14.83424377 C17.26047897 15.92277145 17.25531769 17.01129913 17.25 18.1328125 C17.24858505 19.2411998 17.2471701 20.3495871 17.24571228 21.49156189 C17.24009408 25.04778694 17.2275385 28.60395008 17.21484375 32.16015625 C17.20983109 34.56445222 17.20526778 36.96874917 17.20117188 39.37304688 C17.19011874 45.28127129 17.17336292 51.18945935 17.15234375 57.09765625 C16.49234375 56.76765625 15.83234375 56.43765625 15.15234375 56.09765625 C15.15234375 40.25765625 15.15234375 24.41765625 15.15234375 8.09765625 C12.18234375 8.09765625 9.21234375 8.09765625 6.15234375 8.09765625 C5.15234375 7.09765625 5.15234375 7.09765625 5.08984375 4.03515625 C5.11046875 3.06578125 5.13109375 2.09640625 5.15234375 1.09765625 C2.21142788 1.28181057 2.21142788 1.28181057 -0.84765625 2.09765625 C-2.28403323 4.04928743 -2.28403323 4.04928743 -2.84765625 6.09765625 C-2.89037725 4.4315372 -2.88829457 2.7638274 -2.84765625 1.09765625 C-1.84765625 0.09765625 -1.84765625 0.09765625 0 0 Z " fill="#053998" transform="translate(593.84765625,655.90234375)"/>
<path d="M0 0 C4.56825786 3.26542746 7.5508974 7.07687432 10.8125 11.5625 C11.33440918 12.26834229 11.85631836 12.97418457 12.39404297 13.70141602 C14.78203251 16.937954 17.1436435 20.192888 19.48828125 23.4609375 C20.19339844 24.44320312 20.89851563 25.42546875 21.625 26.4375 C22.23601562 27.30246094 22.84703125 28.16742187 23.4765625 29.05859375 C24.86219171 31.10924959 24.86219171 31.10924959 27 32 C28.48314991 34.2572026 29.70518817 36.6261783 31 39 C31.66 39 32.32 39 33 39 C34.72805471 45.62420971 32.84964058 49.92158211 30 56 C29 53 29 53 30 50.1875 C31.15182501 46.51605778 31.09285074 44.66885607 30 41 C28.12489279 38.2543073 26.06809902 36.06625851 23.6875 33.75 C20.11016616 30.08947235 17.08036723 26.08039167 14 22 C13.47664063 21.35160156 12.95328125 20.70320312 12.4140625 20.03515625 C11 18 11 18 10.1015625 15.60546875 C8.7044343 12.30091375 6.70900937 10.02810137 4.375 7.3125 C0 2.21293375 0 2.21293375 0 0 Z " fill="#023EA5" transform="translate(469,629)"/>
<path d="M0 0 C0.99 0.33 1.98 0.66 3 1 C2.67 1.33 2.34 1.66 2 2 C25.1 2.33 48.2 2.66 72 3 C72 3.33 72 3.66 72 4 C70.02314209 4.03758423 70.02314209 4.03758423 68.00634766 4.07592773 C62.99257878 4.1719786 57.97886897 4.27083802 52.96517944 4.37094116 C50.74515633 4.41517895 48.52512456 4.45898451 46.30508423 4.50234985 C30.71294388 4.79651062 30.71294388 4.79651062 15.12890625 5.359375 C13.92218262 5.41424072 12.71545898 5.46910645 11.47216797 5.52563477 C9.33916689 5.63074698 7.20660142 5.74527685 5.07470703 5.87084961 C4.1567334 5.91733643 3.23875977 5.96382324 2.29296875 6.01171875 C1.5249292 6.05772217 0.75688965 6.10372559 -0.03442383 6.15112305 C-2 6 -2 6 -5 4 C-2.6875 1.9375 -2.6875 1.9375 0 0 Z " fill="#00205F" transform="translate(296,442)"/>
<path d="M0 0 C0.33 0 0.66 0 1 0 C1 10.89 1 21.78 1 33 C3.31 33 5.62 33 8 33 C8 36.3 8 39.6 8 43 C9.65 43 11.3 43 13 43 C13 39.7 13 36.4 13 33 C17.455 32.505 17.455 32.505 22 32 C21.67 32.99 21.34 33.98 21 35 C19.35 35 17.7 35 16 35 C15.87882813 35.71027344 15.75765625 36.42054688 15.6328125 37.15234375 C15.46523438 38.07144531 15.29765625 38.99054687 15.125 39.9375 C14.88136719 41.31228516 14.88136719 41.31228516 14.6328125 42.71484375 C14.42398438 43.46894531 14.21515625 44.22304688 14 45 C13.01 45.495 13.01 45.495 12 46 C12 45.34 12 44.68 12 44 C10.68 44.99 9.36 45.98 8 47 C4.42857143 39.71428571 4.42857143 39.71428571 6 35 C4.02 35 2.04 35 0 35 C0 23.45 0 11.9 0 0 Z " fill="#022B79" transform="translate(540,705)"/>
<path d="M0 0 C0.33 0 0.66 0 1 0 C1 16.83 1 33.66 1 51 C4.63 51 8.26 51 12 51 C12.33 56.94 12.66 62.88 13 69 C15.31 69 17.62 69 20 69 C19.01 69.99 19.01 69.99 18 71 C15.69 70.34 13.38 69.68 11 69 C11 64.38 11 59.76 11 55 C7.32636934 54.08159233 3.74787912 53.50452219 0 53 C-0.9971257 50.00862289 -1.09229826 48.18249007 -1.02172852 45.06958008 C-1.00163223 44.06876907 -0.98153595 43.06795807 -0.96083069 42.03681946 C-0.93379562 40.95861435 -0.90676056 39.88040924 -0.87890625 38.76953125 C-0.85529526 37.66397385 -0.83168427 36.55841644 -0.80735779 35.4193573 C-0.73070304 31.88360817 -0.64668612 28.34807705 -0.5625 24.8125 C-0.50928115 22.41732842 -0.45654074 20.02214617 -0.40429688 17.62695312 C-0.27508539 11.7511668 -0.13982681 5.87554277 0 0 Z " fill="#032973" transform="translate(413,665)"/>
<path d="M0 0 C2.64 0 5.28 0 8 0 C8 6.6 8 13.2 8 20 C7.34 20.33 6.68 20.66 6 21 C6 14.73 6 8.46 6 2 C4.35 2 2.7 2 1 2 C1 8.27 1 14.54 1 21 C-0.98 20.34 -2.96 19.68 -5 19 C-4.34 18.67 -3.68 18.34 -3 18 C-3.33 16.35 -3.66 14.7 -4 13 C-3.34 13 -2.68 13 -2 13 C-1.93941406 12.14535156 -1.87882812 11.29070313 -1.81640625 10.41015625 C-1.69072266 8.75306641 -1.69072266 8.75306641 -1.5625 7.0625 C-1.48128906 5.96035156 -1.40007812 4.85820313 -1.31640625 3.72265625 C-1 1 -1 1 0 0 Z " fill="#043A9A" transform="translate(469,683)"/>
<path d="M0 0 C1.63581157 2.30691376 1.4427111 3.9565631 1.21875 6.71875 C0.55875 6.71875 -0.10125 6.71875 -0.78125 6.71875 C-0.78125 5.06875 -0.78125 3.41875 -0.78125 1.71875 C-2.76125 1.71875 -4.74125 1.71875 -6.78125 1.71875 C-7.11125 3.69875 -7.44125 5.67875 -7.78125 7.71875 C-12.23625 8.21375 -12.23625 8.21375 -16.78125 8.71875 C-17.11125 24.55875 -17.44125 40.39875 -17.78125 56.71875 C-18.11125 56.71875 -18.44125 56.71875 -18.78125 56.71875 C-18.80654373 49.77702612 -18.82409304 42.83531406 -18.83618164 35.89355469 C-18.84121959 33.53059444 -18.84805008 31.16763732 -18.85668945 28.8046875 C-18.86877854 25.41405465 -18.87448359 22.02346291 -18.87890625 18.6328125 C-18.88406754 17.57131989 -18.88922882 16.50982727 -18.89454651 15.41616821 C-18.89462204 14.43530243 -18.89469757 13.45443665 -18.89477539 12.44384766 C-18.896996 11.57780914 -18.89921661 10.71177063 -18.90150452 9.81948853 C-18.78125 7.71875 -18.78125 7.71875 -17.78125 5.71875 C-16.358125 5.8115625 -16.358125 5.8115625 -14.90625 5.90625 C-13.359375 5.8134375 -13.359375 5.8134375 -11.78125 5.71875 C-11.12125 4.72875 -10.46125 3.73875 -9.78125 2.71875 C-10.11125 2.05875 -10.44125 1.39875 -10.78125 0.71875 C-9.34978622 0.30161485 -7.91066114 -0.0892997 -6.46875 -0.46875 C-5.66824219 -0.68917969 -4.86773437 -0.90960937 -4.04296875 -1.13671875 C-1.78125 -1.28125 -1.78125 -1.28125 0 0 Z " fill="#0541AD" transform="translate(430.78125,656.28125)"/>
<path d="M0 0 C1.1916143 3.57484289 0.74788456 4.28587882 -0.65234375 7.66796875 C-1.01650391 8.56064453 -1.38066406 9.45332031 -1.75585938 10.37304688 C-2.14580078 11.30181641 -2.53574219 12.23058594 -2.9375 13.1875 C-3.32357422 14.12787109 -3.70964844 15.06824219 -4.10742188 16.03710938 C-5.06321649 18.36169628 -6.02767007 20.68229199 -7 23 C-6.28980713 23.33733154 -5.57961426 23.67466309 -4.84790039 24.0222168 C-1.58466152 25.57430657 1.67642451 27.13087023 4.9375 28.6875 C6.05447266 29.21794922 7.17144531 29.74839844 8.32226562 30.29492188 C14.6720927 33.33017646 20.9045478 36.47956335 27 40 C24 41 24 41 22.20996094 40.3190918 C21.55801758 39.94953369 20.90607422 39.57997559 20.234375 39.19921875 C19.14576172 38.59883789 19.14576172 38.59883789 18.03515625 37.98632812 C16.90400391 37.3434082 16.90400391 37.3434082 15.75 36.6875 C9.62685394 33.19100013 9.62685394 33.19100013 3.015625 30.83203125 C2.02046875 30.55746094 1.0253125 30.28289063 0 30 C-0.33 29.34 -0.66 28.68 -1 28 C-3.11015954 26.87293294 -3.11015954 26.87293294 -5.5625 25.875 C-6.80193359 25.34519531 -6.80193359 25.34519531 -8.06640625 24.8046875 C-8.70449219 24.53914062 -9.34257812 24.27359375 -10 24 C-9.38659192 19.91559985 -8.03146933 16.77669499 -6.125 13.125 C-3.90475842 8.80193346 -1.83951659 4.49659611 0 0 Z " fill="#03338D" transform="translate(416,614)"/>
<path d="M0 0 C2.0625 0.6875 2.0625 0.6875 5.0625 2.6875 C2.98334841 4.48422348 0.89949349 6.27492527 -1.1875 8.0625 C-2.06728516 8.82433594 -2.06728516 8.82433594 -2.96484375 9.6015625 C-5.81915933 12.03895558 -8.4255973 14.24449048 -11.9375 15.6875 C-11.38340036 11.46723426 -9.97497714 8.8746824 -7.5 5.4375 C-6.88253906 4.56609375 -6.26507813 3.6946875 -5.62890625 2.796875 C-2.99843626 -0.48361875 -2.99843626 -0.48361875 0 0 Z " fill="#024FCF" transform="translate(498.9375,704.3125)"/>
<path d="M0 0 C2 1 2 1 2.9296875 3.44140625 C3.24164063 4.47136719 3.55359375 5.50132812 3.875 6.5625 C5.10114076 10.44450791 6.39949054 14.03066042 8.3125 17.625 C8.869375 18.73875 9.42625 19.8525 10 21 C9.67 21.66 9.34 22.32 9 23 C8.24161787 21.71323688 7.49393731 20.42016797 6.75 19.125 C6.33234375 18.40570312 5.9146875 17.68640625 5.484375 16.9453125 C3.36744561 12.74487892 1.69944614 8.38295049 0 4 C-0.43868408 4.94637329 -0.43868408 4.94637329 -0.88623047 5.91186523 C-2.20936887 8.75679649 -3.54204051 11.59715795 -4.875 14.4375 C-5.56529297 15.92733398 -5.56529297 15.92733398 -6.26953125 17.44726562 C-6.71425781 18.39150391 -7.15898437 19.33574219 -7.6171875 20.30859375 C-8.02565918 21.18314209 -8.43413086 22.05769043 -8.85498047 22.95874023 C-10 25 -10 25 -12 26 C-10.34176227 20.46347949 -7.92776074 15.38439485 -5.4375 10.1875 C-5.02564453 9.31673828 -4.61378906 8.44597656 -4.18945312 7.54882812 C-1.13502139 1.13502139 -1.13502139 1.13502139 0 0 Z " fill="#022E81" transform="translate(376,527)"/>
<path d="M0 0 C3.3 0 6.6 0 10 0 C10 0.66 10 1.32 10 2 C12.97 2.33 15.94 2.66 19 3 C19 3.33 19 3.66 19 4 C8.44 4 -2.12 4 -13 4 C-13 3.67 -13 3.34 -13 3 C-8.71 2.34 -4.42 1.68 0 1 C0 0.67 0 0.34 0 0 Z " fill="#0440A7" transform="translate(483,392)"/>
<path d="M0 0 C6.15234375 -0.09765625 6.15234375 -0.09765625 8 0 C9.99616554 1.99616554 9.40983427 5.81701963 9.5625 8.5625 C9.60568359 9.27341797 9.64886719 9.98433594 9.69335938 10.71679688 C9.79971777 12.47761912 9.90038846 14.2387832 10 16 C12.97 16.33 15.94 16.66 19 17 C19 17.33 19 17.66 19 18 C15.04 18 11.08 18 7 18 C7 12.72 7 7.44 7 2 C4.36 2 1.72 2 -1 2 C-0.67 1.34 -0.34 0.68 0 0 Z " fill="#023592" transform="translate(375,603)"/>
<path d="M0 0 C2.31 0 4.62 0 7 0 C6.67 5.61 6.34 11.22 6 17 C5.67 17 5.34 17 5 17 C5 12.05 5 7.1 5 2 C3.68 2 2.36 2 1 2 C1 6.95 1 11.9 1 17 C-5.435 17.495 -5.435 17.495 -12 18 C-12 17.34 -12 16.68 -12 16 C-8.04 16 -4.08 16 0 16 C0 10.72 0 5.44 0 0 Z " fill="#0262F7" transform="translate(642,605)"/>
<path d="M0 0 C0.99 0.33 1.98 0.66 3 1 C2.67 1.33 2.34 1.66 2 2 C6.79593617 2.9001836 11.51399614 3.29439762 16.375 3.5625 C17.11105469 3.60568359 17.84710938 3.64886719 18.60546875 3.69335938 C20.40348068 3.79843799 22.20171958 3.89962093 24 4 C24 4.33 24 4.66 24 5 C19.72989093 5.22551667 15.45898818 5.42747453 11.1875 5.625 C9.97255859 5.68945312 8.75761719 5.75390625 7.50585938 5.8203125 C6.34248047 5.871875 5.17910156 5.9234375 3.98046875 5.9765625 C2.90692139 6.02893066 1.83337402 6.08129883 0.72729492 6.13525391 C-2 6 -2 6 -5 4 C-2.6875 1.9375 -2.6875 1.9375 0 0 Z " fill="#002872" transform="translate(296,442)"/>
<path d="M0 0 C3.19138475 0.66456753 5.81452197 1.77866214 8.6875 3.3125 C9.86892578 3.92544922 9.86892578 3.92544922 11.07421875 4.55078125 C13 6 13 6 14 10 C10.7 10 7.4 10 4 10 C4 9.01 4 8.02 4 7 C5.65 6.67 7.3 6.34 9 6 C6.03 4.35 3.06 2.7 0 1 C0 0.67 0 0.34 0 0 Z " fill="#01266D" transform="translate(717,438)"/>
<path d="M0 0 C0.66 0 1.32 0 2 0 C2 0.99 2 1.98 2 3 C3.98 3 5.96 3 8 3 C8 5.97 8 8.94 8 12 C9.32 12.33 10.64 12.66 12 13 C10.35 13 8.7 13 7 13 C6.67 11.35 6.34 9.7 6 8 C4.68 8 3.36 8 2 8 C1.33333333 5.33333333 0.66666667 2.66666667 0 0 Z " fill="#022B78" transform="translate(462,736)"/>
<path d="M0 0 C0.33 0.66 0.66 1.32 1 2 C0.0337499 4.01652194 -0.96708324 6.01679982 -2 8 C-2 8.66 -2 9.32 -2 10 C2.95 11.98 2.95 11.98 8 14 C3.6542186 15.08644535 3.05039452 14.90680911 -0.75 13.0625 C-1.54921875 12.68222656 -2.3484375 12.30195312 -3.171875 11.91015625 C-3.77515625 11.60980469 -4.3784375 11.30945313 -5 11 C-3.77472971 6.94718288 -2.30119506 3.55639236 0 0 Z " fill="#022A7B" transform="translate(353,572)"/>
<path d="M0 0 C3.40323127 2.52811466 5.9624476 5.16391184 8.59765625 8.47265625 C11.05184659 11.1456045 13.99027607 12.99351738 17 15 C16.01 15.495 16.01 15.495 15 16 C9.41423163 11.91618268 3.90759436 7.80775789 0 2 C0 1.34 0 0.68 0 0 Z " fill="#03348F" transform="translate(399,544)"/>
<path d="M0 0 C2.49088027 0.96867566 3.74102029 1.49136385 4.9765625 3.91796875 C5.19054687 4.66691406 5.40453125 5.41585937 5.625 6.1875 C5.86089844 6.98414063 6.09679687 7.78078125 6.33984375 8.6015625 C6.55769531 9.39304687 6.77554688 10.18453125 7 11 C7.20753906 11.70898438 7.41507813 12.41796875 7.62890625 13.1484375 C8.09970682 14.76167022 8.55199478 16.38028882 9 18 C6.44736912 15.725306 5.15855185 13.56797307 3.8125 10.4375 C3.46832031 9.65246094 3.12414062 8.86742187 2.76953125 8.05859375 C2 6 2 6 2 4 C1.34 4 0.68 4 0 4 C0 2.68 0 1.36 0 0 Z " fill="#022D7E" transform="translate(646,527)"/>
<path d="M0 0 C3 1 3 1 6 3 C1.545 6.96 1.545 6.96 -3 11 C-3.66 10.67 -4.32 10.34 -5 10 C-4.01 9.1028125 -4.01 9.1028125 -3 8.1875 C-0.6626154 6.12498166 -0.6626154 6.12498166 -1 3 C-0.67 2.01 -0.34 1.02 0 0 Z " fill="#013DA6" transform="translate(498,704)"/>
<path d="M0 0 C0.66 0.33 1.32 0.66 2 1 C3.87056791 1.2275015 5.74685958 1.40962811 7.625 1.5625 C8.62789062 1.64628906 9.63078125 1.73007812 10.6640625 1.81640625 C11.43492187 1.87699219 12.20578125 1.93757812 13 2 C12.01 2.495 12.01 2.495 11 3 C11.33 3.99 11.66 4.98 12 6 C10.02 6 8.04 6 6 6 C6.66 5.67 7.32 5.34 8 5 C5.99906947 3.79481757 5.99906947 3.79481757 3.5 4.125 C2.675 4.08375 1.85 4.0425 1 4 C0.34 3.01 -0.32 2.02 -1 1 C-0.67 0.67 -0.34 0.34 0 0 Z " fill="#043B9E" transform="translate(577,714)"/>
<path d="M0 0 C3.57410797 2.68058098 6.31941902 5.42589203 9 9 C8.67 9.66 8.34 10.32 8 11 C6.65499045 9.93119777 5.32428562 8.84437492 4 7.75 C3.2575 7.14671875 2.515 6.5434375 1.75 5.921875 C0 4 0 4 0 0 Z " fill="#013CA7" transform="translate(460,618)"/>
<path d="M0 0 C0 2.97 0 5.94 0 9 C-1.32 9 -2.64 9 -4 9 C-4.368 3.48 -4.368 3.48 -2.5625 1.125 C-1 0 -1 0 0 0 Z " fill="#035EEE" transform="translate(475,739)"/>
<path d="M0 0 C2.31 0 4.62 0 7 0 C7.33 0.66 7.66 1.32 8 2 C7.01 2.99 6.02 3.98 5 5 C5 4.34 5 3.68 5 3 C4.01 2.67 3.02 2.34 2 2 C1.67 4.64 1.34 7.28 1 10 C0.67 10 0.34 10 0 10 C0 6.7 0 3.4 0 0 Z " fill="#01348F" transform="translate(475,738)"/>
<path d="M0 0 C0.625 1.8125 0.625 1.8125 1 4 C-1.44580676 7.66871014 -4.12424268 9.06212134 -8 11 C-6.63629701 8.00779732 -5.05091917 5.70973471 -2.875 3.25 C-2.33617187 2.63640625 -1.79734375 2.0228125 -1.2421875 1.390625 C-0.62730469 0.70226562 -0.62730469 0.70226562 0 0 Z " fill="#033EA6" transform="translate(549,634)"/>
<path d="M0 0 C0.99 0 1.98 0 3 0 C3 0.66 3 1.32 3 2 C2.34 2 1.68 2 1 2 C1 5.63 1 9.26 1 13 C0.34 12.67 -0.32 12.34 -1 12 C-1.02687279 10.18757948 -1.04633715 8.37504767 -1.0625 6.5625 C-1.07410156 5.55316406 -1.08570313 4.54382813 -1.09765625 3.50390625 C-1 1 -1 1 0 0 Z " fill="#053A9B" transform="translate(629,619)"/>
<path d="M0 0 C2.125 0.9375 2.125 0.9375 4 2 C3.67 3.32 3.34 4.64 3 6 C3 5.01 3 4.02 3 3 C-0.96 3 -4.92 3 -9 3 C-8.67 2.34 -8.34 1.68 -8 1 C-7.05125 1.020625 -6.1025 1.04125 -5.125 1.0625 C-2.09333717 1.22551826 -2.09333717 1.22551826 0 0 Z " fill="#04348B" transform="translate(441,661)"/>
<path d="M0 0 C0.66 0.66 1.32 1.32 2 2 C1.67 2.99 1.34 3.98 1 5 C4.465 6.485 4.465 6.485 8 8 C6.375 8.6875 6.375 8.6875 4 9 C0.75 7.5625 0.75 7.5625 -2 6 C-1.125 1.125 -1.125 1.125 0 0 Z " fill="#053C9F" transform="translate(408,632)"/>
<path d="M0 0 C0.33 0.66 0.66 1.32 1 2 C0.67 2.66 0.34 3.32 0 4 C0.66 4.33 1.32 4.66 2 5 C0.02 6.32 -1.96 7.64 -4 9 C-3.46930939 5.17902761 -2.50298434 2.93828597 0 0 Z " fill="#02358F" transform="translate(491,711)"/>
<path d="M0 0 C0.33 0 0.66 0 1 0 C0.52013969 5.56890517 -0.29915181 10.67067568 -2 16 C-2.66 15.67 -3.32 15.34 -4 15 C-3.43179252 9.54520815 -2.05362055 5.08940744 0 0 Z " fill="#02328B" transform="translate(411,295)"/>
<path d="M0 0 C0.66 0.33 1.32 0.66 2 1 C0.02 4.63 -1.96 8.26 -4 12 C-5 9 -5 9 -3.6875 6 C-2 3 -2 3 0 0 Z " fill="#015FEF" transform="translate(420,276)"/>
<path d="M0 0 C0.33 0.99 0.66 1.98 1 3 C-1.88035092 5.24027294 -4.84866512 7.16172132 -8 9 C-6.4169423 4.7257442 -3.49431596 2.73468206 0 0 Z " fill="#0147BD" transform="translate(558,625)"/>
<path d="M0 0 C2.49361571 1.20381448 4.68143083 2.45428722 7 4 C7.6875 6.625 7.6875 6.625 8 9 C4.36905358 6.35039045 2.10148204 3.98175544 0 0 Z " fill="#0148C1" transform="translate(601,478)"/>
<path d="M0 0 C0 3 0 3 -1.2421875 4.60546875 C-1.78101563 5.12753906 -2.31984375 5.64960937 -2.875 6.1875 C-3.40867187 6.71730469 -3.94234375 7.24710938 -4.4921875 7.79296875 C-6 9 -6 9 -8 9 C-6.90101298 5.70303895 -6.05402613 4.95329411 -3.4375 2.8125 C-2.79683594 2.28269531 -2.15617187 1.75289062 -1.49609375 1.20703125 C-0.75552734 0.60955078 -0.75552734 0.60955078 0 0 Z " fill="#005DF2" transform="translate(476,537)"/>
<path d="M0 0 C0.66 0.99 1.32 1.98 2 3 C0.02 4.32 -1.96 5.64 -4 7 C-4 4 -4 4 -2 1.8125 C-1.34 1.214375 -0.68 0.61625 0 0 Z " fill="#0041AE" transform="translate(537,472)"/>
<path d="M0 0 C0.33 0 0.66 0 1 0 C1 2.64 1 5.28 1 8 C0.67 8 0.34 8 0 8 C0 5.36 0 2.72 0 0 Z " fill="#064ABB" transform="translate(484,711)"/>
<path d="M0 0 C0.66 0.66 1.32 1.32 2 2 C0.35 2 -1.3 2 -3 2 C-2.01 1.34 -1.02 0.68 0 0 Z " fill="#074FD0" transform="translate(553,680)"/>
<path d="M0 0 C0.99 0.66 1.98 1.32 3 2 C1.35 2 -0.3 2 -2 2 C-1.34 1.34 -0.68 0.68 0 0 Z " fill="#064FCE" transform="translate(471,680)"/>
<path d="M0 0 C0.33 0 0.66 0 1 0 C1 1.65 1 3.3 1 5 C0.67 5 0.34 5 0 5 C0 3.35 0 1.7 0 0 Z " fill="#084ECD" transform="translate(538,705)"/>
<path d="M0 0 C0.33 0 0.66 0 1 0 C1 1.65 1 3.3 1 5 C0.67 5 0.34 5 0 5 C0 3.35 0 1.7 0 0 Z " fill="#0651D4" transform="translate(446,703)"/>
<path d="M0 0 C1.32 0 2.64 0 4 0 C3.67 0.66 3.34 1.32 3 2 C2.01 1.34 1.02 0.68 0 0 Z " fill="#0557E1" transform="translate(499,398)"/>
<path d="M0 0 C4 1 4 1 4 1 Z " fill="#0745B5" transform="translate(436,719)"/>
<path d="M0 0 C3 1 3 1 3 1 Z " fill="#043FAC" transform="translate(414,719)"/>
<path d="" fill="#064ECD" transform="translate(0,0)"/>
<path d="M0 0 C3 1 3 1 3 1 Z " fill="#0651D0" transform="translate(557,701)"/>
<path d="M0 0 C0.66 0.66 1.32 1.32 2 2 C1.34 2 0.68 2 0 2 C0 1.34 0 0.68 0 0 Z " fill="#0754DA" transform="translate(612,624)"/>
<path d="M0 0 C0.99 0.495 0.99 0.495 2 1 C1.01 1.495 1.01 1.495 0 2 C0 1.34 0 0.68 0 0 Z " fill="#0650D4" transform="translate(636,598)"/>
<path d="M0 0 C0.99 0.495 0.99 0.495 2 1 C1.01 1.495 1.01 1.495 0 2 C0 1.34 0 0.68 0 0 Z " fill="#0755DD" transform="translate(421,566)"/>
<path d="M0 0 C0.66 0 1.32 0 2 0 C1.67 0.66 1.34 1.32 1 2 C0.67 1.34 0.34 0.68 0 0 Z " fill="#0755DB" transform="translate(549,536)"/>
<path d="M0 0 C3 1 3 1 3 1 Z " fill="#0556DE" transform="translate(564,476)"/>
<path d="M0 0 C0.66 0.66 1.32 1.32 2 2 C1.34 2 0.68 2 0 2 C0 1.34 0 0.68 0 0 Z " fill="#0857E0" transform="translate(600,457)"/>
<path d="M0 0 C3 1 3 1 3 1 Z " fill="#054FD0" transform="translate(644,411)"/>
<path d="M0 0 C3 1 3 1 3 1 Z " fill="#0757E3" transform="translate(516,399)"/>
<path d="M0 0 C3 1 3 1 3 1 Z " fill="#0559E4" transform="translate(507,398)"/>
<path d="M0 0 C3 1 3 1 3 1 Z " fill="#0455E1" transform="translate(481,397)"/>
<path d="" fill="#02379A" transform="translate(0,0)"/>
<path d="" fill="#0544B0" transform="translate(0,0)"/>
<path d="" fill="#0546B7" transform="translate(0,0)"/>
<path d="" fill="#0647B6" transform="translate(0,0)"/>
<path d="M0 0 C2 1 2 1 2 1 Z " fill="#0641A7" transform="translate(608,719)"/>
<path d="" fill="#0641B1" transform="translate(0,0)"/>
<path d="" fill="#0745BE" transform="translate(0,0)"/>
<path d="" fill="#0744BA" transform="translate(0,0)"/>
<path d="" fill="#064AC4" transform="translate(0,0)"/>
<path d="" fill="#0853D4" transform="translate(0,0)"/>
<path d="" fill="#0753D9" transform="translate(0,0)"/>
<path d="" fill="#053B9C" transform="translate(0,0)"/>
<path d="" fill="#084EC9" transform="translate(0,0)"/>
<path d="" fill="#0A52D4" transform="translate(0,0)"/>
<path d="" fill="#0856DE" transform="translate(0,0)"/>
<path d="" fill="#0543B2" transform="translate(0,0)"/>
<path d="M0 0 C2 1 2 1 2 1 Z " fill="#0559E5" transform="translate(587,661)"/>
<path d="M0 0 C2 1 2 1 2 1 Z " fill="#0654DC" transform="translate(417,656)"/>
<path d="" fill="#0957E0" transform="translate(0,0)"/>
<path d="" fill="#0546BB" transform="translate(0,0)"/>
<path d="M0 0 C2 1 2 1 2 1 Z " fill="#0858DD" transform="translate(597,647)"/>
<path d="" fill="#0847B7" transform="translate(0,0)"/>
<path d="M0 0 C2 1 2 1 2 1 Z " fill="#054DCC" transform="translate(370,617)"/>
<path d="" fill="#064BC5" transform="translate(0,0)"/>
<path d="" fill="#074AC5" transform="translate(0,0)"/>
<path d="M0 0 C2 1 2 1 2 1 Z " fill="#0855D9" transform="translate(622,603)"/>
<path d="" fill="#0347C7" transform="translate(0,0)"/>
<path d="M0 0 C2 1 2 1 2 1 Z " fill="#0450D8" transform="translate(387,598)"/>
<path d="M0 0 C2 1 2 1 2 1 Z " fill="#0749BF" transform="translate(654,591)"/>
<path d="" fill="#0541B1" transform="translate(0,0)"/>
<path d="M0 0 C2 1 2 1 2 1 Z " fill="#0955D6" transform="translate(461,567)"/>
<path d="M0 0 C2 1 2 1 2 1 Z " fill="#0454E0" transform="translate(554,565)"/>
<path d="M0 0 C2 1 2 1 2 1 Z " fill="#0655DF" transform="translate(419,564)"/>
<path d="M0 0 C2 1 2 1 2 1 Z " fill="#0547B8" transform="translate(657,545)"/>
<path d="M0 0 C2 1 2 1 2 1 Z " fill="#0956D7" transform="translate(425,544)"/>
<path d="" fill="#0752D8" transform="translate(0,0)"/>
<path d="" fill="#0652D8" transform="translate(0,0)"/>
<path d="" fill="#0756DF" transform="translate(0,0)"/>
<path d="" fill="#0754D7" transform="translate(0,0)"/>
<path d="M0 0 C2 1 2 1 2 1 Z " fill="#0653D9" transform="translate(524,485)"/>
<path d="M0 0 C2 1 2 1 2 1 Z " fill="#0456E0" transform="translate(596,479)"/>
<path d="M0 0 C2 1 2 1 2 1 Z " fill="#0758DC" transform="translate(558,479)"/>
<path d="M0 0 C2 1 2 1 2 1 Z " fill="#0554DC" transform="translate(585,475)"/>
<path d="" fill="#0657DE" transform="translate(0,0)"/>
<path d="" fill="#0458E1" transform="translate(0,0)"/>
<path d="M0 0 C2 1 2 1 2 1 Z " fill="#012D7E" transform="translate(297,440)"/>
<path d="M0 0 C2 1 2 1 2 1 Z " fill="#033A96" transform="translate(312,432)"/>
<path d="M0 0 C2 1 2 1 2 1 Z " fill="#0648B8" transform="translate(353,417)"/>
<path d="M0 0 C2 1 2 1 2 1 Z " fill="#044ABE" transform="translate(662,416)"/>
<path d="M0 0 C2 1 2 1 2 1 Z " fill="#044EC8" transform="translate(370,413)"/>
<path d="" fill="#074FCC" transform="translate(0,0)"/>
<path d="M0 0 C2 1 2 1 2 1 Z " fill="#0756DE" transform="translate(416,405)"/>
<path d="M0 0 C2 1 2 1 2 1 Z " fill="#0556E3" transform="translate(447,402)"/>
<path d="M0 0 C2 1 2 1 2 1 Z " fill="#075BDE" transform="translate(481,400)"/>
<path d="M0 0 C2 1 2 1 2 1 Z " fill="#0457E0" transform="translate(416,398)"/>
<path d="M0 0 C2 1 2 1 2 1 Z " fill="#0458E2" transform="translate(487,397)"/>
<path d="" fill="#044ECD" transform="translate(0,0)"/>
<path d="" fill="#044DC9" transform="translate(0,0)"/>
<path d="" fill="#054DCB" transform="translate(0,0)"/>
<path d="" fill="#054AC4" transform="translate(0,0)"/>
<path d="M0 0 C2 1 2 1 2 1 Z " fill="#0448BF" transform="translate(492,292)"/>
<path d="M0 0 C2 1 2 1 2 1 Z " fill="#0245B7" transform="translate(574,288)"/>
<path d="M0 0 C2 1 2 1 2 1 Z " fill="#0346BC" transform="translate(460,280)"/>
<path d="" fill="#000000" transform="translate(0,0)"/>
<path d="" fill="#023087" transform="translate(0,0)"/>
<path d="" fill="#04378F" transform="translate(0,0)"/>
<path d="" fill="#033994" transform="translate(0,0)"/>
<path d="" fill="#063B9D" transform="translate(0,0)"/>
<path d="" fill="#043B9E" transform="translate(0,0)"/>
<path d="" fill="#043E9D" transform="translate(0,0)"/>
<path d="" fill="#043A9C" transform="translate(0,0)"/>
<path d="" fill="#0740A1" transform="translate(0,0)"/>
<path d="" fill="#053C9E" transform="translate(0,0)"/>
<path d="" fill="#053D9F" transform="translate(0,0)"/>
<path d="" fill="#0642AA" transform="translate(0,0)"/>
<path d="" fill="#0540AA" transform="translate(0,0)"/>
<path d="" fill="#0545B5" transform="translate(0,0)"/>
<path d="" fill="#0343BB" transform="translate(0,0)"/>
<path d="" fill="#0644B9" transform="translate(0,0)"/>
<path d="" fill="#0849C5" transform="translate(0,0)"/>
<path d="" fill="#0846BB" transform="translate(0,0)"/>
<path d="" fill="#0744AE" transform="translate(0,0)"/>
<path d="" fill="#0952D1" transform="translate(0,0)"/>
<path d="" fill="#0352D2" transform="translate(0,0)"/>
<path d="" fill="#053592" transform="translate(0,0)"/>
<path d="" fill="#074DC9" transform="translate(0,0)"/>
<path d="" fill="#073795" transform="translate(0,0)"/>
<path d="" fill="#084DCB" transform="translate(0,0)"/>
<path d="" fill="#0753D6" transform="translate(0,0)"/>
<path d="" fill="#043B97" transform="translate(0,0)"/>
<path d="" fill="#0753D9" transform="translate(0,0)"/>
<path d="" fill="#053A97" transform="translate(0,0)"/>
<path d="" fill="#053A94" transform="translate(0,0)"/>
<path d="" fill="#0951CB" transform="translate(0,0)"/>
<path d="" fill="#0955DB" transform="translate(0,0)"/>
<path d="" fill="#054ECB" transform="translate(0,0)"/>
<path d="" fill="#02399D" transform="translate(0,0)"/>
<path d="" fill="#0956D8" transform="translate(0,0)"/>
<path d="" fill="#0752D5" transform="translate(0,0)"/>
<path d="" fill="#0653DD" transform="translate(0,0)"/>
<path d="" fill="#074FCB" transform="translate(0,0)"/>
<path d="" fill="#0958E1" transform="translate(0,0)"/>
<path d="" fill="#0441AE" transform="translate(0,0)"/>
<path d="" fill="#0650D1" transform="translate(0,0)"/>
<path d="" fill="#0952D5" transform="translate(0,0)"/>
<path d="" fill="#044DD0" transform="translate(0,0)"/>
<path d="" fill="#0851D4" transform="translate(0,0)"/>
<path d="" fill="#0645B3" transform="translate(0,0)"/>
<path d="" fill="#0850D2" transform="translate(0,0)"/>
<path d="" fill="#084CBF" transform="translate(0,0)"/>
<path d="" fill="#0750D2" transform="translate(0,0)"/>
<path d="" fill="#0750CF" transform="translate(0,0)"/>
<path d="" fill="#0744B4" transform="translate(0,0)"/>
<path d="" fill="#0943AC" transform="translate(0,0)"/>
<path d="" fill="#0751D3" transform="translate(0,0)"/>
<path d="" fill="#0650CC" transform="translate(0,0)"/>
<path d="" fill="#0952D6" transform="translate(0,0)"/>
<path d="" fill="#0952D6" transform="translate(0,0)"/>
<path d="" fill="#0956DB" transform="translate(0,0)"/>
<path d="" fill="#0A55D7" transform="translate(0,0)"/>
<path d="" fill="#0955DD" transform="translate(0,0)"/>
<path d="" fill="#0553DC" transform="translate(0,0)"/>
<path d="" fill="#0950D5" transform="translate(0,0)"/>
<path d="" fill="#0652D4" transform="translate(0,0)"/>
<path d="" fill="#0755E0" transform="translate(0,0)"/>
<path d="" fill="#0C52D6" transform="translate(0,0)"/>
<path d="" fill="#0640AD" transform="translate(0,0)"/>
<path d="" fill="#0455E0" transform="translate(0,0)"/>
<path d="" fill="#0854DC" transform="translate(0,0)"/>
<path d="" fill="#0656DD" transform="translate(0,0)"/>
<path d="" fill="#0953D9" transform="translate(0,0)"/>
<path d="" fill="#0954D8" transform="translate(0,0)"/>
<path d="" fill="#0B5AE1" transform="translate(0,0)"/>
<path d="" fill="#0852D8" transform="translate(0,0)"/>
<path d="" fill="#0A56D8" transform="translate(0,0)"/>
<path d="" fill="#0754DA" transform="translate(0,0)"/>
<path d="" fill="#0550DE" transform="translate(0,0)"/>
<path d="" fill="#0754D6" transform="translate(0,0)"/>
<path d="" fill="#0958E1" transform="translate(0,0)"/>
<path d="" fill="#0A58DF" transform="translate(0,0)"/>
<path d="" fill="#075BE1" transform="translate(0,0)"/>
<path d="" fill="#0959DD" transform="translate(0,0)"/>
<path d="" fill="#0743AD" transform="translate(0,0)"/>
<path d="" fill="#0645B9" transform="translate(0,0)"/>
<path d="" fill="#0756E1" transform="translate(0,0)"/>
<path d="" fill="#0543B2" transform="translate(0,0)"/>
<path d="" fill="#0B5BDE" transform="translate(0,0)"/>
<path d="" fill="#0755E2" transform="translate(0,0)"/>
<path d="" fill="#0544B4" transform="translate(0,0)"/>
<path d="" fill="#0659E5" transform="translate(0,0)"/>
<path d="" fill="#0350D7" transform="translate(0,0)"/>
<path d="" fill="#0A57E2" transform="translate(0,0)"/>
<path d="" fill="#0853DA" transform="translate(0,0)"/>
<path d="" fill="#0455E1" transform="translate(0,0)"/>
<path d="" fill="#0B57E0" transform="translate(0,0)"/>
<path d="" fill="#0550D7" transform="translate(0,0)"/>
<path d="" fill="#0452D6" transform="translate(0,0)"/>
<path d="" fill="#0646BB" transform="translate(0,0)"/>
<path d="" fill="#0858E4" transform="translate(0,0)"/>
<path d="" fill="#094DCC" transform="translate(0,0)"/>
<path d="" fill="#0A58E1" transform="translate(0,0)"/>
<path d="" fill="#0854D9" transform="translate(0,0)"/>
<path d="" fill="#0756DB" transform="translate(0,0)"/>
<path d="" fill="#0753D8" transform="translate(0,0)"/>
<path d="" fill="#0952D5" transform="translate(0,0)"/>
<path d="" fill="#0345BC" transform="translate(0,0)"/>
<path d="" fill="#0959E6" transform="translate(0,0)"/>
<path d="" fill="#0645B2" transform="translate(0,0)"/>
<path d="" fill="#0444B4" transform="translate(0,0)"/>
<path d="" fill="#064BC0" transform="translate(0,0)"/>
<path d="" fill="#0854D7" transform="translate(0,0)"/>
<path d="" fill="#0653DA" transform="translate(0,0)"/>
<path d="" fill="#0652D4" transform="translate(0,0)"/>
<path d="" fill="#0649BE" transform="translate(0,0)"/>
<path d="" fill="#0648BA" transform="translate(0,0)"/>
<path d="" fill="#064AC5" transform="translate(0,0)"/>
<path d="" fill="#0852D9" transform="translate(0,0)"/>
<path d="" fill="#044BCA" transform="translate(0,0)"/>
<path d="" fill="#0452DE" transform="translate(0,0)"/>
<path d="" fill="#0857DE" transform="translate(0,0)"/>
<path d="" fill="#0753D6" transform="translate(0,0)"/>
<path d="" fill="#0752D5" transform="translate(0,0)"/>
<path d="" fill="#054AC3" transform="translate(0,0)"/>
<path d="" fill="#0755E2" transform="translate(0,0)"/>
<path d="" fill="#0952D7" transform="translate(0,0)"/>
<path d="" fill="#0953D9" transform="translate(0,0)"/>
<path d="" fill="#0852D9" transform="translate(0,0)"/>
<path d="" fill="#0655DA" transform="translate(0,0)"/>
<path d="" fill="#034AC7" transform="translate(0,0)"/>
<path d="" fill="#0548BE" transform="translate(0,0)"/>
<path d="" fill="#0353D9" transform="translate(0,0)"/>
<path d="" fill="#054CCB" transform="translate(0,0)"/>
<path d="" fill="#0855DB" transform="translate(0,0)"/>
<path d="" fill="#0355DA" transform="translate(0,0)"/>
<path d="" fill="#0750CE" transform="translate(0,0)"/>
<path d="" fill="#0455DD" transform="translate(0,0)"/>
<path d="" fill="#0655DB" transform="translate(0,0)"/>
<path d="" fill="#0654DB" transform="translate(0,0)"/>
<path d="" fill="#0556DC" transform="translate(0,0)"/>
<path d="" fill="#0547BA" transform="translate(0,0)"/>
<path d="" fill="#0644B5" transform="translate(0,0)"/>
<path d="" fill="#0440A9" transform="translate(0,0)"/>
<path d="" fill="#063C9C" transform="translate(0,0)"/>
<path d="" fill="#033A9A" transform="translate(0,0)"/>
<path d="" fill="#0756DE" transform="translate(0,0)"/>
<path d="" fill="#0752D9" transform="translate(0,0)"/>
<path d="" fill="#0754D9" transform="translate(0,0)"/>
<path d="" fill="#053DA9" transform="translate(0,0)"/>
<path d="" fill="#0654D5" transform="translate(0,0)"/>
<path d="" fill="#0753DB" transform="translate(0,0)"/>
<path d="" fill="#0856DB" transform="translate(0,0)"/>
<path d="" fill="#0742AC" transform="translate(0,0)"/>
<path d="" fill="#0545B1" transform="translate(0,0)"/>
<path d="" fill="#0854DD" transform="translate(0,0)"/>
<path d="" fill="#0554D9" transform="translate(0,0)"/>
<path d="" fill="#0654DA" transform="translate(0,0)"/>
<path d="" fill="#0652D9" transform="translate(0,0)"/>
<path d="" fill="#0644B3" transform="translate(0,0)"/>
<path d="" fill="#0653D8" transform="translate(0,0)"/>
<path d="" fill="#0954DA" transform="translate(0,0)"/>
<path d="" fill="#0445B4" transform="translate(0,0)"/>
<path d="" fill="#0642AE" transform="translate(0,0)"/>
<path d="" fill="#0647B6" transform="translate(0,0)"/>
<path d="" fill="#045BE4" transform="translate(0,0)"/>
<path d="" fill="#0758DC" transform="translate(0,0)"/>
<path d="" fill="#065AE3" transform="translate(0,0)"/>
<path d="" fill="#0556DE" transform="translate(0,0)"/>
<path d="" fill="#084FD4" transform="translate(0,0)"/>
<path d="" fill="#0750D7" transform="translate(0,0)"/>
<path d="" fill="#000000" transform="translate(0,0)"/>
<path d="" fill="#0751D3" transform="translate(0,0)"/>
<path d="" fill="#0846B6" transform="translate(0,0)"/>
<path d="" fill="#0856D3" transform="translate(0,0)"/>
<path d="" fill="#0854D9" transform="translate(0,0)"/>
<path d="" fill="#0852D6" transform="translate(0,0)"/>
<path d="" fill="#0755DC" transform="translate(0,0)"/>
<path d="" fill="#0448BA" transform="translate(0,0)"/>
<path d="" fill="#0853D6" transform="translate(0,0)"/>
<path d="" fill="#0555DA" transform="translate(0,0)"/>
<path d="" fill="#0745BA" transform="translate(0,0)"/>
<path d="" fill="#0654DC" transform="translate(0,0)"/>
<path d="" fill="#0652D6" transform="translate(0,0)"/>
<path d="" fill="#0242B3" transform="translate(0,0)"/>
<path d="" fill="#0552E3" transform="translate(0,0)"/>
<path d="" fill="#0752D6" transform="translate(0,0)"/>
<path d="" fill="#0756DB" transform="translate(0,0)"/>
<path d="" fill="#0657E4" transform="translate(0,0)"/>
<path d="" fill="#0544B7" transform="translate(0,0)"/>
<path d="" fill="#0442B5" transform="translate(0,0)"/>
<path d="" fill="#0750D6" transform="translate(0,0)"/>
<path d="" fill="#0854DD" transform="translate(0,0)"/>
<path d="" fill="#0655D9" transform="translate(0,0)"/>
<path d="" fill="#0647B6" transform="translate(0,0)"/>
<path d="" fill="#0951DB" transform="translate(0,0)"/>
<path d="" fill="#0753D6" transform="translate(0,0)"/>
<path d="" fill="#0447B9" transform="translate(0,0)"/>
<path d="" fill="#0852D9" transform="translate(0,0)"/>
<path d="" fill="#0545B5" transform="translate(0,0)"/>
<path d="" fill="#0956DE" transform="translate(0,0)"/>
<path d="" fill="#0754D7" transform="translate(0,0)"/>
<path d="" fill="#0856D9" transform="translate(0,0)"/>
<path d="" fill="#0756DA" transform="translate(0,0)"/>
<path d="" fill="#0754DB" transform="translate(0,0)"/>
<path d="" fill="#084DCF" transform="translate(0,0)"/>
<path d="" fill="#0758DD" transform="translate(0,0)"/>
<path d="" fill="#0650D1" transform="translate(0,0)"/>
<path d="" fill="#054FD0" transform="translate(0,0)"/>
<path d="" fill="#064FCF" transform="translate(0,0)"/>
<path d="" fill="#0353DB" transform="translate(0,0)"/>
<path d="" fill="#0654DD" transform="translate(0,0)"/>
<path d="" fill="#0454DD" transform="translate(0,0)"/>
<path d="" fill="#0B54D4" transform="translate(0,0)"/>
<path d="" fill="#0456DD" transform="translate(0,0)"/>
<path d="" fill="#0556DD" transform="translate(0,0)"/>
<path d="" fill="#0854DA" transform="translate(0,0)"/>
<path d="" fill="#0754D9" transform="translate(0,0)"/>
<path d="" fill="#0456DD" transform="translate(0,0)"/>
<path d="" fill="#0553D9" transform="translate(0,0)"/>
<path d="" fill="#0554E1" transform="translate(0,0)"/>
<path d="" fill="#0455DE" transform="translate(0,0)"/>
<path d="" fill="#0956D6" transform="translate(0,0)"/>
<path d="" fill="#0655D8" transform="translate(0,0)"/>
<path d="" fill="#0758E1" transform="translate(0,0)"/>
<path d="" fill="#0452DF" transform="translate(0,0)"/>
<path d="" fill="#0654E0" transform="translate(0,0)"/>
<path d="" fill="#0455DF" transform="translate(0,0)"/>
<path d="" fill="#0654DB" transform="translate(0,0)"/>
<path d="" fill="#0856DB" transform="translate(0,0)"/>
<path d="" fill="#0858E2" transform="translate(0,0)"/>
<path d="" fill="#0657DB" transform="translate(0,0)"/>
<path d="" fill="#0756DE" transform="translate(0,0)"/>
<path d="" fill="#0456DE" transform="translate(0,0)"/>
<path d="" fill="#0556DE" transform="translate(0,0)"/>
<path d="" fill="#0658E3" transform="translate(0,0)"/>
<path d="" fill="#0B5ADF" transform="translate(0,0)"/>
<path d="" fill="#0757DB" transform="translate(0,0)"/>
<path d="" fill="#085ADC" transform="translate(0,0)"/>
<path d="" fill="#002C72" transform="translate(0,0)"/>
<path d="" fill="#012E85" transform="translate(0,0)"/>
<path d="" fill="#002C7B" transform="translate(0,0)"/>
<path d="" fill="#013593" transform="translate(0,0)"/>
<path d="" fill="#033792" transform="translate(0,0)"/>
<path d="" fill="#01358F" transform="translate(0,0)"/>
<path d="" fill="#0241AA" transform="translate(0,0)"/>
<path d="" fill="#0343AA" transform="translate(0,0)"/>
<path d="" fill="#0446B3" transform="translate(0,0)"/>
<path d="" fill="#0447B9" transform="translate(0,0)"/>
<path d="" fill="#0544B4" transform="translate(0,0)"/>
<path d="" fill="#034CBE" transform="translate(0,0)"/>
<path d="" fill="#024BBE" transform="translate(0,0)"/>
<path d="" fill="#074CC4" transform="translate(0,0)"/>
<path d="" fill="#0550D5" transform="translate(0,0)"/>
<path d="" fill="#0754D9" transform="translate(0,0)"/>
<path d="" fill="#0750D2" transform="translate(0,0)"/>
<path d="" fill="#054ECA" transform="translate(0,0)"/>
<path d="" fill="#0656D7" transform="translate(0,0)"/>
<path d="" fill="#0655DC" transform="translate(0,0)"/>
<path d="" fill="#0658E6" transform="translate(0,0)"/>
<path d="" fill="#0653DC" transform="translate(0,0)"/>
<path d="" fill="#0757E1" transform="translate(0,0)"/>
<path d="" fill="#0655DC" transform="translate(0,0)"/>
<path d="" fill="#0655DD" transform="translate(0,0)"/>
<path d="" fill="#0559DE" transform="translate(0,0)"/>
<path d="" fill="#0556DA" transform="translate(0,0)"/>
<path d="" fill="#0757DE" transform="translate(0,0)"/>
<path d="" fill="#0957DE" transform="translate(0,0)"/>
<path d="" fill="#085BDF" transform="translate(0,0)"/>
<path d="" fill="#0654DB" transform="translate(0,0)"/>
<path d="" fill="#0858DF" transform="translate(0,0)"/>
<path d="" fill="#0557DF" transform="translate(0,0)"/>
<path d="" fill="#0553D5" transform="translate(0,0)"/>
<path d="" fill="#0958E0" transform="translate(0,0)"/>
<path d="" fill="#0555E0" transform="translate(0,0)"/>
<path d="" fill="#0A53D6" transform="translate(0,0)"/>
<path d="" fill="#0459E3" transform="translate(0,0)"/>
<path d="" fill="#0657E4" transform="translate(0,0)"/>
<path d="" fill="#0555E2" transform="translate(0,0)"/>
<path d="" fill="#0456E3" transform="translate(0,0)"/>
<path d="" fill="#0356E5" transform="translate(0,0)"/>
<path d="" fill="#0750CC" transform="translate(0,0)"/>
<path d="" fill="#054CC5" transform="translate(0,0)"/>
<path d="" fill="#014CC9" transform="translate(0,0)"/>
<path d="" fill="#044CCE" transform="translate(0,0)"/>
<path d="" fill="#064DC5" transform="translate(0,0)"/>
<path d="" fill="#064FCE" transform="translate(0,0)"/>
<path d="" fill="#034ECF" transform="translate(0,0)"/>
<path d="" fill="#064CC5" transform="translate(0,0)"/>
<path d="" fill="#054CC3" transform="translate(0,0)"/>
<path d="" fill="#064CC7" transform="translate(0,0)"/>
<path d="" fill="#054AC2" transform="translate(0,0)"/>
<path d="" fill="#0749BE" transform="translate(0,0)"/>
<path d="" fill="#0448C3" transform="translate(0,0)"/>
<path d="" fill="#0447BD" transform="translate(0,0)"/>
<path d="" fill="#0444B5" transform="translate(0,0)"/>
<path d="" fill="#054CC3" transform="translate(0,0)"/>
<path d="" fill="#044DC7" transform="translate(0,0)"/>
<path d="" fill="#064CCA" transform="translate(0,0)"/>
<path d="" fill="#0749BB" transform="translate(0,0)"/>
<path d="" fill="#034ACA" transform="translate(0,0)"/>
<path d="" fill="#054AC4" transform="translate(0,0)"/>
<path d="" fill="#0446B8" transform="translate(0,0)"/>
<path d="" fill="#0348BC" transform="translate(0,0)"/>
<path d="" fill="#054ABF" transform="translate(0,0)"/>
<path d="" fill="#054AC1" transform="translate(0,0)"/>
<path d="" fill="#0346BE" transform="translate(0,0)"/>
<path d="" fill="#0243AF" transform="translate(0,0)"/>
<path d="" fill="#044BC2" transform="translate(0,0)"/>
<path d="" fill="#064BC5" transform="translate(0,0)"/>
<path d="" fill="#0448B9" transform="translate(0,0)"/>
<path d="" fill="#0447BA" transform="translate(0,0)"/>
<path d="" fill="#0646B3" transform="translate(0,0)"/>
<path d="" fill="#0141AE" transform="translate(0,0)"/>
<path d="" fill="#0244B1" transform="translate(0,0)"/>
<path d="" fill="#033EA2" transform="translate(0,0)"/>
</svg>
