<?xml version="1.0" encoding="UTF-8"?>
<svg xmlns="http://www.w3.org/2000/svg" width="500" height="500" viewBox="0 0 500 500">
  <path d="M 431.00,454.50 L 68.00,454.50 L 57.00,449.50 L 49.50,442.00 L 44.50,431.00 L 44.50,68.00 L 53.00,52.50 L 68.00,44.50 L 432.00,44.50 L 449.50,57.00 L 454.50,68.00 L 454.50,431.00 L 449.50,442.00 L 442.00,449.50 L 431.00,454.50 Z" fill="#000000" fill-rule="evenodd"/>
  <path d="M 299.00,283.50 L 285.00,283.50 L 270.00,276.50 L 259.50,264.00 L 255.50,248.00 L 256.50,242.00 L 254.00,240.50 L 241.50,242.00 L 241.50,255.00 L 238.50,264.00 L 235.50,269.00 L 225.00,278.50 L 212.00,283.50 L 199.00,283.50 L 190.00,280.50 L 175.50,268.00 L 171.50,260.00 L 169.50,242.00 L 172.50,232.00 L 179.50,222.00 L 185.00,217.50 L 199.00,211.50 L 212.00,211.50 L 225.00,216.50 L 233.50,224.00 L 239.00,232.50 L 245.00,230.50 L 259.00,231.50 L 271.00,217.50 L 281.00,212.50 L 299.00,211.50 L 306.00,213.50 L 316.00,219.50 L 323.50,228.00 L 328.50,241.00 L 328.50,253.00 L 325.50,263.00 L 318.50,273.00 L 308.00,280.50 L 299.00,283.50 Z M 389.00,204.50 L 108.50,204.00 L 131.00,192.50 L 168.00,182.50 L 223.00,176.50 L 284.50,176.00 L 227.00,170.50 L 198.00,170.50 L 168.00,174.50 L 186.50,99.00 L 190.00,93.50 L 199.00,92.50 L 233.00,104.50 L 250.00,112.50 L 257.00,112.50 L 294.00,102.50 L 304.00,102.50 L 310.50,111.00 L 331.50,182.00 L 370.00,193.50 L 387.00,201.50 L 389.00,204.50 Z M 296.50,273.00 L 308.00,268.50 L 313.50,263.00 L 318.50,252.00 L 318.50,242.00 L 314.50,233.00 L 307.00,225.50 L 297.00,221.50 L 287.00,221.50 L 279.00,224.50 L 271.50,231.00 L 267.50,238.00 L 265.50,249.00 L 267.50,257.00 L 274.00,266.50 L 284.00,272.50 L 296.50,273.00 Z M 209.50,273.00 L 218.00,270.50 L 227.50,262.00 L 231.50,253.00 L 231.50,243.00 L 227.50,233.00 L 221.00,226.50 L 210.00,221.50 L 201.00,221.50 L 193.00,224.50 L 184.50,232.00 L 180.50,240.00 L 179.50,250.00 L 182.50,260.00 L 190.00,268.50 L 202.00,273.50 L 209.50,273.00 Z M 236.00,380.50 L 234.50,380.00 L 249.50,358.00 L 301.50,293.00 L 321.00,283.50 L 330.50,274.00 L 338.00,259.50 L 355.50,293.00 L 310.00,309.50 L 308.50,311.00 L 316.50,328.00 L 315.00,329.50 L 276.00,350.50 L 251.00,367.50 L 236.00,380.50 Z M 338.00,367.50 L 333.50,367.00 L 333.50,357.00 L 327.00,356.50 L 325.50,351.00 L 325.50,319.00 L 333.50,318.00 L 334.00,307.50 L 338.50,308.00 L 339.00,318.50 L 345.50,319.00 L 345.50,356.00 L 338.50,357.00 L 338.00,367.50 Z M 304.00,392.50 L 300.50,392.00 L 300.50,381.00 L 292.50,380.00 L 292.50,347.00 L 300.00,346.50 L 303.00,341.50 L 306.00,341.50 L 307.00,346.50 L 312.50,347.00 L 312.50,380.00 L 305.50,381.00 L 305.50,391.00 L 304.00,392.50 Z M 276.00,401.50 L 273.00,401.50 L 272.50,395.00 L 268.50,394.00 L 268.50,373.00 L 272.50,372.00 L 273.00,359.50 L 276.50,360.00 L 276.50,372.00 L 281.50,373.00 L 281.50,393.00 L 276.50,395.00 L 276.00,401.50 Z M 225.00,401.50 L 222.50,401.00 L 222.50,396.00 L 218.50,395.00 L 218.50,373.00 L 221.50,372.00 L 222.00,359.50 L 225.50,360.00 L 225.50,371.00 L 230.50,373.00 L 230.50,394.00 L 225.50,395.00 L 225.00,401.50 Z M 197.00,392.50 L 193.50,392.00 L 192.50,381.00 L 185.50,380.00 L 185.50,347.00 L 191.00,346.50 L 192.00,341.50 L 195.00,341.50 L 198.00,346.50 L 205.50,347.00 L 205.50,380.00 L 198.50,381.00 L 197.00,392.50 Z M 165.00,367.50 L 160.50,367.00 L 160.50,357.00 L 152.50,355.00 L 152.50,319.00 L 160.50,318.00 L 161.00,307.50 L 165.50,308.00 L 166.00,318.50 L 173.50,319.00 L 173.50,356.00 L 165.50,357.00 L 165.00,367.50 Z M 239.00,361.50 L 217.00,346.50 L 181.50,329.00 L 189.00,309.50 L 143.50,293.00 L 161.00,259.50 L 170.50,277.00 L 182.00,286.50 L 197.00,292.50 L 228.50,332.00 L 242.50,352.00 L 239.00,361.50 Z" fill="#0056E7" fill-rule="evenodd"/>
</svg>