<?xml version="1.0" encoding="UTF-8"?>
<svg version="1.1" xmlns="http://www.w3.org/2000/svg" width="500" height="500">
<path d="M0 0 C1.27920974 -0.00706559 2.55841947 -0.01413118 3.87639314 -0.02141088 C5.28344905 -0.01915986 6.69050466 -0.01671341 8.09755993 -0.01409245 C9.60202922 -0.01854757 11.10649618 -0.02386252 12.61095971 -0.02996117 C16.73743073 -0.04411829 20.86382635 -0.0458049 24.99031818 -0.04536426 C29.44374988 -0.04701446 33.89715069 -0.06008463 38.35056591 -0.07155704 C48.08398306 -0.09438895 57.81737838 -0.10232546 67.55081868 -0.10738349 C73.62969776 -0.1106421 79.70857052 -0.1171655 85.78744602 -0.12438488 C102.62273772 -0.14394712 119.45802354 -0.16035397 136.29332733 -0.16326141 C137.37024397 -0.16344898 138.44716061 -0.16363655 139.55671109 -0.16382981 C141.73980693 -0.16419605 143.92290277 -0.16455975 146.10599861 -0.16492092 C147.73150111 -0.16519514 147.73150111 -0.16519514 149.38984203 -0.16547489 C150.47483481 -0.16565544 151.55982759 -0.16583599 152.67769893 -0.16602201 C170.26273843 -0.1695645 187.84765553 -0.19659324 205.43265257 -0.23397278 C223.49278722 -0.27205478 241.55286112 -0.29141887 259.61303681 -0.29172093 C269.75088659 -0.29230546 279.8885903 -0.30079509 290.02640247 -0.32971859 C298.65759646 -0.3542308 307.28859107 -0.3615163 315.91981045 -0.34647106 C320.32214815 -0.33930197 324.72409213 -0.34015959 329.12638569 -0.36288166 C333.16016913 -0.38350202 337.19325689 -0.38084327 341.22703304 -0.36000682 C342.68258279 -0.35651777 344.13818305 -0.36139721 345.59366659 -0.37571125 C356.44871117 -0.47554598 364.18109397 1.1997915 372.34125805 8.57256222 C377.84771387 14.50758653 380.58738422 21.23720093 380.60047913 29.2887888 C380.60493697 30.55716764 380.60939481 31.82554649 380.61398774 33.13236105 C380.61389844 34.54794448 380.61370858 35.96352789 380.61342907 37.37911129 C380.61672763 38.87671453 380.62045318 40.37431687 380.62457055 41.87191808 C380.63459971 45.99793872 380.63830882 50.12394482 380.64095986 54.24997592 C380.64486022 58.69595093 380.65443878 63.14191439 380.66317272 67.58788204 C380.68294524 78.33055552 380.69300457 89.07322995 380.70190051 99.81591707 C380.70628233 104.87344459 380.71164943 109.93097105 380.71688938 114.98849773 C380.73390284 131.79875185 380.74839715 148.6090053 380.75563812 165.4192667 C380.75754805 169.78270245 380.75946838 174.1461382 380.76142406 178.50957394 C380.7619078 179.59410041 380.76239155 180.67862689 380.76288994 181.79601781 C380.77119076 199.3657985 380.79652802 216.93551113 380.82900474 234.50526209 C380.86206811 252.5392698 380.88008625 270.57324291 380.88328236 288.60728109 C380.88544818 298.73452084 380.89420733 308.86166134 380.91974354 318.98887157 C380.9414407 327.61357858 380.94950581 336.23816222 380.93977676 344.86289342 C380.93522914 349.26300466 380.93714506 353.66286134 380.9565382 358.06293774 C380.97414986 362.09365545 380.97318855 366.12393252 380.95764091 370.15465479 C380.95526178 371.61030643 380.95960428 373.06598842 380.97146956 374.52159365 C381.06054046 386.17337661 379.26972716 393.94618703 371.2592268 402.53740597 C365.33085612 408.23329152 359.20729153 410.50689365 351.06838799 410.51733112 C349.79403599 410.52378002 348.519684 410.53022891 347.20671529 410.53687322 C345.79995826 410.5339312 344.39320164 410.53079579 342.98644543 410.52748775 C341.48625167 410.53122533 339.98605986 410.53582729 338.48587114 410.5412184 C334.36660752 410.55345048 330.24742511 410.55318769 326.12814748 410.55082965 C321.68426377 410.55042154 317.24040611 410.56146008 312.79653454 410.57094479 C304.09137838 410.58755678 295.38624931 410.59305442 286.68107864 410.59416954 C279.6051121 410.5951199 272.52915451 410.59922957 265.4531908 410.60557079 C245.39136579 410.62318356 225.32956217 410.63240958 205.26772936 410.63090985 C204.1862199 410.63082993 203.10471044 410.63075002 201.99042797 410.63066769 C200.907598 410.63058593 199.82476802 410.63050416 198.70912502 410.63041992 C181.15893035 410.62960696 163.60882149 410.64874716 146.05865165 410.67694442 C128.03810436 410.70566897 110.01759894 410.71948496 91.99702817 410.71775687 C81.87989956 410.71709283 71.76286091 410.72259122 61.64575291 410.74411297 C53.03209108 410.76231908 44.41855999 410.76667676 35.80488726 410.75309412 C31.41083586 410.74656167 27.01703535 410.74645726 22.62300777 410.76380062 C18.59795274 410.77952414 14.57334766 410.77667529 10.54830364 410.75923236 C9.09476385 410.75616086 7.64119054 410.75980056 6.18769028 410.77095251 C-5.45475081 410.85433961 -13.22679644 409.05707006 -21.8110857 401.05303097 C-27.50593121 395.12574278 -29.78056991 389.00257957 -29.79101086 380.86498547 C-29.79745975 379.59125017 -29.80390864 378.31751488 -29.81055295 377.00518155 C-29.80761093 375.59911354 -29.80447552 374.19304592 -29.80116749 372.78697872 C-29.80490508 371.28749766 -29.80950703 369.78801854 -29.81489813 368.28854251 C-29.82713024 364.1712095 -29.82686742 360.05395773 -29.82450938 355.9366107 C-29.82410127 351.49475286 -29.83513989 347.05292109 -29.84462452 342.6110754 C-29.86123686 333.90959425 -29.86673418 325.2081402 -29.86784928 316.50664452 C-29.86879968 309.43307025 -29.87290959 302.35950493 -29.87925053 295.28593349 C-29.8968639 275.22917414 -29.9060893 255.17243619 -29.90458958 235.11566904 C-29.90450967 234.03442231 -29.90442975 232.95317557 -29.90434742 231.83916378 C-29.90426566 230.75659612 -29.9041839 229.67402845 -29.90409966 228.55865571 C-29.90328682 211.01560311 -29.92242361 193.47263638 -29.95062415 175.92960861 C-29.97935461 157.91470656 -29.99316434 139.89984638 -29.9914366 121.88492084 C-29.99077274 111.77167272 -29.99626348 101.65851461 -30.0177927 91.54528713 C-30.03600665 82.93421573 -30.04035009 74.32327513 -30.02677386 65.7121928 C-30.02024518 61.32004273 -30.02012332 56.9281436 -30.03748035 52.53601742 C-30.05322073 48.51152697 -30.0503378 44.48748625 -30.03291209 40.46300671 C-30.02984429 39.010795 -30.03346633 37.55854965 -30.04463224 36.10637763 C-30.11454764 26.36473138 -29.05980912 18.80102491 -23.78374195 10.51006222 C-16.73201863 3.4583389 -10.21109143 0.01809845 0 0 Z " fill="#000001" transform="translate(74.53374195098877,44.7399377822876)"/>
<path d="M0 0 C4.30069954 0.71537688 8.32905158 2.10172741 12.42724609 3.56005859 C13.35561279 3.88103516 14.28397949 4.20201172 15.24047852 4.53271484 C23.69897724 7.47864387 32.14454903 10.44455758 40.26708984 14.23583984 C50.30005907 19.04025973 50.30005907 19.04025973 61.23974609 19.37255859 C61.80177734 19.07091797 62.36380859 18.76927734 62.94287109 18.45849609 C66.3946637 16.82652612 70.01516301 16.21098126 73.73974609 15.43505859 C79.0805532 14.29999012 84.35425913 13.09465773 89.61474609 11.62255859 C95.32921914 10.19195338 101.42143535 9.08898351 107.23974609 10.37255859 C111.46099989 13.70061956 113.11591675 16.79394887 114.67724609 21.87255859 C114.87769531 22.51128906 115.07814453 23.15001953 115.28466797 23.80810547 C117.31425746 30.36858281 119.1489742 36.99132696 121.00683594 43.60205078 C122.82294382 50.03366213 124.85588028 56.3475698 127.01318359 62.67333984 C128.40232152 66.86287366 129.6821963 71.07587367 130.92724609 75.31005859 C131.12970947 75.99616211 131.33217285 76.68226563 131.54077148 77.38916016 C132.89084639 82.02409844 134.09233088 86.68335029 135.23974609 91.37255859 C136.51333984 91.48083984 137.78693359 91.58912109 139.09912109 91.70068359 C144.40864076 92.29432027 149.37567569 93.61210743 154.48974609 95.12255859 C155.41215088 95.39205322 156.33455566 95.66154785 157.28491211 95.93920898 C169.4382068 99.54953069 181.21765703 104.04919247 192.23974609 110.37255859 C192.56974609 111.03255859 192.89974609 111.69255859 193.23974609 112.37255859 C99.84974609 112.37255859 6.45974609 112.37255859 -89.76025391 112.37255859 C-52.93254781 75.5448525 33.34696721 83.98181191 80.23974609 83.37255859 C60.40183602 81.00762256 40.88848609 80.20959472 20.91162109 80.2421875 C16.98449884 80.24756578 13.05748996 80.2422055 9.13037109 80.23583984 C6.59912085 80.23650041 4.06787067 80.23778113 1.53662109 80.23974609 C0.38007019 80.23772186 -0.77648071 80.23569763 -1.96807861 80.23361206 C-16.58440348 80.23558858 -16.58440348 80.23558858 -30.76025391 83.37255859 C-29.48122184 77.40783331 -28.03771551 71.51130526 -26.44775391 65.62255859 C-24.58572774 58.64708467 -22.84790878 51.6510671 -21.19775391 44.62255859 C-19.48482969 37.3426307 -17.70465929 30.09616655 -15.72119141 22.88427734 C-15.05134875 20.4363564 -14.41308956 17.97966749 -13.79931641 15.51708984 C-13.31591797 13.65117188 -13.31591797 13.65117188 -12.82275391 11.74755859 C-12.40703125 10.08853516 -12.40703125 10.08853516 -11.98291016 8.39599609 C-9.60278273 2.51031358 -6.58976868 -0.43993537 0 0 Z " fill="#0055E4" transform="translate(197.76025390625,92.62744140625)"/>
<path d="M0 0 C0.70471436 0.01417969 1.40942871 0.02835938 2.13549805 0.04296875 C13.23157976 0.37033961 19.66068788 2.84091584 28.125 10.3125 C34.125 16.9125 34.125 16.9125 34.125 20.3125 C35.115 19.9825 36.105 19.6525 37.125 19.3125 C39.61605024 19.21614538 42.07240703 19.1731754 44.5625 19.1875 C45.88121094 19.18492187 47.19992188 19.18234375 48.55859375 19.1796875 C51.32738454 19.2827969 53.51577114 19.47167433 56.125 20.3125 C56.33125 19.631875 56.5375 18.95125 56.75 18.25 C60.6482728 9.92187175 67.64073659 4.49409878 76.125 1.3125 C85.81183252 -1.09273393 98.08079306 -1.20397317 106.87109375 3.91015625 C115.36659358 9.70830606 122.11950665 16.3744831 124.6953125 26.56640625 C126.69186478 39.32619039 124.15332112 49.5833539 117.125 60.3125 C110.91810241 67.55135123 100.40089805 72.55935713 91.01171875 73.53125 C85.20904105 73.7717755 80.45866122 72.51822086 75.125 70.3125 C74.43277344 70.0340625 73.74054688 69.755625 73.02734375 69.46875 C63.42406261 65.17595381 57.95924062 57.43794029 54.15234375 47.8671875 C52.13176396 41.87123446 51.85474906 36.61835529 52.125 30.3125 C47.505 30.3125 42.885 30.3125 38.125 30.3125 C38.2075 32.395625 38.29 34.47875 38.375 36.625 C38.31939678 47.66779977 35.38508985 55.10006376 27.69921875 63.078125 C18.9035712 70.71258691 10.29294915 72.74388198 -1.09375 72.66015625 C-9.60782242 71.87735414 -17.99991993 68.61746397 -23.875 62.3125 C-32.11514173 51.81935749 -35.46620665 41.72609289 -33.875 28.3125 C-31.16749436 18.04554278 -25.4366631 10.49000173 -16.84375 4.41796875 C-11.10214114 1.19400981 -6.61666345 -0.17841972 0 0 Z " fill="#0054E1" transform="translate(203.875,211.6875)"/>
<path d="M0 0 C0.66 0 1.32 0 2 0 C2.4846875 1.06476563 2.969375 2.12953125 3.46875 3.2265625 C7.4233233 11.81701762 11.60713681 20.06709172 16.53125 28.14453125 C18 31 18 31 18 35 C16.96101563 35.31453125 15.92203125 35.6290625 14.8515625 35.953125 C8.05324599 38.03127368 1.34320216 40.12813105 -5.2109375 42.8984375 C-7.57759148 43.83316638 -9.93983206 44.66923291 -12.3515625 45.4765625 C-13.12636963 45.73832275 -13.90117676 46.00008301 -14.69946289 46.26977539 C-16.25531392 46.79171446 -17.81437725 47.30418899 -19.37670898 47.80639648 C-21.28298755 48.45001616 -23.14681205 49.21652144 -25 50 C-26.20963046 53.62889137 -25.68301064 54.3467885 -24.1875 57.75 C-22.4381854 61.76647683 -21.15089846 65.77135952 -20 70 C-20.89460938 70.36351562 -21.78921875 70.72703125 -22.7109375 71.1015625 C-29.29343163 73.8384204 -35.50257147 76.65671166 -41.55078125 80.46484375 C-44.09653515 82.06050768 -46.69429412 83.52656679 -49.3125 85 C-62.71721242 92.79626409 -75.60103682 101.69532991 -88 111 C-88.74378906 111.54011719 -89.48757812 112.08023438 -90.25390625 112.63671875 C-94.17928147 115.50665238 -97.66591704 118.45753685 -101 122 C-101.33 121.34 -101.66 120.68 -102 120 C-93.16714541 106.4020528 -83.69246499 93.36579244 -73.45263672 80.79980469 C-71.55765321 78.45193605 -69.70788523 76.07057983 -67.8581543 73.68701172 C-63.28395919 67.79474458 -58.54613537 62.09425197 -53.63208008 56.48266602 C-50.82105754 53.23743156 -48.15866654 49.92739512 -45.59765625 46.48046875 C-45.02837402 45.71516846 -44.4590918 44.94986816 -43.87255859 44.16137695 C-42.77905333 42.67765096 -41.69661194 41.18568254 -40.62744141 39.68432617 C-36.3689178 33.90041225 -32.30925905 31.34821665 -25.625 28.625 C-11.98983953 22.51268669 -5.64450367 13.56334948 0 0 Z " fill="#0054E2" transform="translate(337,260)"/>
<path d="M0 0 C0.66 0 1.32 0 2 0 C2.22042969 0.80050781 2.22042969 0.80050781 2.4453125 1.6171875 C5.69985061 12.42823939 10.87087589 21.04692982 20.8671875 26.58984375 C25.03776616 28.71673486 29.16355299 30.69583745 33.56640625 32.296875 C37.48495747 34.24054773 39.50082741 36.56424651 41.9375 40.0625 C42.80386565 41.24539404 43.67106093 42.42768087 44.5390625 43.609375 C44.95833008 44.19009766 45.37759766 44.77082031 45.80957031 45.36914062 C47.4149371 47.56845362 49.10377017 49.69280983 50.8125 51.8125 C51.44671875 52.60140625 52.0809375 53.3903125 52.734375 54.203125 C55.09701197 57.1197596 57.4661291 60.03104159 59.83618164 62.94165039 C70.35488921 75.86429396 70.35488921 75.86429396 75 82 C75.66257812 82.81855469 76.32515625 83.63710938 77.0078125 84.48046875 C82.55846134 91.67454499 82.55846134 91.67454499 82 96.5 C81 100 81 100 80 102 C75.99587724 101.4491683 73.64860836 100.29827297 70.4375 97.875 C60.62041322 90.77604623 49.97717608 85.37265087 39.13476562 80.05126953 C35.41410581 78.21902329 31.70798163 76.35773037 28 74.5 C26.6458956 73.82279215 25.29173488 73.14569688 23.9375 72.46875 C22.968125 71.9840625 21.99875 71.499375 21 71 C21.8244636 65.86368655 23.85771123 61.47624813 25.94140625 56.7421875 C27.18006823 54.02345417 27.18006823 54.02345417 27 51 C26.12601563 50.76216797 26.12601563 50.76216797 25.234375 50.51953125 C20.57589895 49.19376998 16.12872598 47.68624672 11.6875 45.75 C4.9402076 42.82794424 -2.02851291 40.64596888 -9.05395508 38.49902344 C-9.93720459 38.21833008 -10.8204541 37.93763672 -11.73046875 37.6484375 C-12.52864014 37.40270996 -13.32681152 37.15698242 -14.14916992 36.90380859 C-15.06533081 36.45642334 -15.06533081 36.45642334 -16 36 C-17 33 -17 33 -15.87597656 30.27612305 C-15.30331055 29.19886963 -14.73064453 28.12161621 -14.140625 27.01171875 C-13.83558044 26.43090042 -13.53053589 25.85008209 -13.21624756 25.25166321 C-12.23684434 23.39182309 -11.24379553 21.53968281 -10.25 19.6875 C-9.59542066 18.45166587 -8.94176406 17.21534253 -8.2890625 15.97851562 C-7.07900487 13.68649275 -5.86268788 11.39827367 -4.64160156 9.11206055 C-3.05027155 6.09530211 -1.51368169 3.05634022 0 0 Z " fill="#0054E2" transform="translate(161,259)"/>
<path d="M0 0 C6.02568204 4.58475807 10.1631255 10.10268216 11.23046875 17.7265625 C11.67534583 26.26339297 8.93564612 32.46509256 3.5625 39 C-4.07247299 45.2145129 -10.20300972 47.95756492 -20.125 47.1875 C-27.87323503 45.75793634 -34.12029148 40.44886945 -38.58203125 34.12109375 C-41.8549712 27.8412125 -42.10320255 21.1101642 -41.125 14.1875 C-39.64566618 9.72026268 -38.14928103 5.3707578 -33.953125 2.91796875 C-33.34984375 2.67691406 -32.7465625 2.43585938 -32.125 2.1875 C-32.125 1.5275 -32.125 0.8675 -32.125 0.1875 C-21.53944791 -7.28465442 -10.6659452 -6.18624822 0 0 Z " fill="#000104" transform="translate(308.125,226.8125)"/>
<path d="M0 0 C6.38532275 3.7232727 10.79124812 9.50462562 12.7734375 16.6171875 C13.37612336 23.39103698 13.89815998 29.89579825 9.7734375 35.6171875 C9.33257812 36.26171875 8.89171875 36.90625 8.4375 37.5703125 C3.40174727 44.20276732 -3.30287392 47.54015321 -11.4609375 49.0234375 C-17.67916199 49.32191228 -23.66574377 47.16558952 -28.9140625 43.9921875 C-35.87621855 36.84186507 -38.5390625 30.57829334 -38.5390625 20.78930664 C-38.40453157 13.97638506 -37.13749911 9.72387039 -32.42578125 4.6953125 C-22.38336878 -4.74260524 -12.30604232 -5.59940743 0 0 Z " fill="#000104" transform="translate(219.2265625,225.3828125)"/>
<path d="M0 0 C1.65 0 3.3 0 5 0 C5 3.63 5 7.26 5 11 C7.64 11 10.28 11 13 11 C13 23.54 13 36.08 13 49 C10.36 49 7.72 49 5 49 C5 52.63 5 56.26 5 60 C3.35 60 1.7 60 0 60 C0 56.37 0 52.74 0 49 C-2.64 49 -5.28 49 -8 49 C-8 36.46 -8 23.92 -8 11 C-5.36 11 -2.72 11 0 11 C0 7.37 0 3.74 0 0 Z " fill="#0054E3" transform="translate(161,308)"/>
<path d="M0 0 C1.98 0 3.96 0 6 0 C6 3.63 6 7.26 6 11 C8.31 11 10.62 11 13 11 C13 23.54 13 36.08 13 49 C10.69 49 8.38 49 6 49 C6 52.63 6 56.26 6 60 C4.35 60 2.7 60 1 60 C1 56.37 1 52.74 1 49 C-1.64 49 -4.28 49 -7 49 C-7 36.13 -7 23.26 -7 10 C-4.69 10 -2.38 10 0 10 C0 6.7 0 3.4 0 0 Z " fill="#0053DF" transform="translate(333,308)"/>
<path d="M0 0 C1.65 0 3.3 0 5 0 C5 1.32 5 2.64 5 4 C7.31 4 9.62 4 12 4 C12 15.55 12 27.1 12 39 C9.36 39 6.72 39 4 39 C4 42.96 4 46.92 4 51 C2.02 51 0.04 51 -2 51 C-2 47.04 -2 43.08 -2 39 C-4.31 39 -6.62 39 -9 39 C-9 27.78 -9 16.56 -9 5 C-6.36 4.67 -3.72 4.34 -1 4 C-0.67 2.68 -0.34 1.36 0 0 Z " fill="#0052DC" transform="translate(302,342)"/>
<path d="M0 0 C1.65 0 3.3 0 5 0 C5.33 1.32 5.66 2.64 6 4 C8.64 4.33 11.28 4.66 14 5 C14 16.22 14 27.44 14 39 C11.69 39 9.38 39 7 39 C7 42.96 7 46.92 7 51 C5.02 51 3.04 51 1 51 C1 47.04 1 43.08 1 39 C-1.31 39 -3.62 39 -6 39 C-6 27.78 -6 16.56 -6 5 C-4.02 5 -2.04 5 0 5 C0 3.35 0 1.7 0 0 Z " fill="#0055E3" transform="translate(192,342)"/>
<path d="M0 0 C1.65 0 3.3 0 5 0 C5 3.96 5 7.92 5 12 C6.32 12 7.64 12 9 12 C9 19.92 9 27.84 9 36 C7.68 36 6.36 36 5 36 C5 37.98 5 39.96 5 42 C3.35 42 1.7 42 0 42 C0 40.02 0 38.04 0 36 C-1.32 36 -2.64 36 -4 36 C-4 28.41 -4 20.82 -4 13 C-2.68 13 -1.36 13 0 13 C0 8.71 0 4.42 0 0 Z " fill="#014ED1" transform="translate(222,360)"/>
<path d="M0 0 C1.32 0 2.64 0 4 0 C4 4.29 4 8.58 4 13 C5.32 13 6.64 13 8 13 C8 20.26 8 27.52 8 35 C6.68 35 5.36 35 4 35 C4 37.31 4 39.62 4 42 C2.68 42 1.36 42 0 42 C0 39.69 0 37.38 0 35 C-1.32 35 -2.64 35 -4 35 C-4 27.74 -4 20.48 -4 13 C-2.68 13 -1.36 13 0 13 C0 8.71 0 4.42 0 0 Z " fill="#0156E4" transform="translate(273,360)"/>
<path d="M0 0 C19.38392113 -0.48594788 38.84346565 1.02852437 58 4 C58 4.33 58 4.66 58 5 C37.54 5 17.08 5 -4 5 C-4 4.67 -4 4.34 -4 4 C1.94 3.505 1.94 3.505 8 3 C8 2.67 8 2.34 8 2 C5.36 1.67 2.72 1.34 0 1 C0 0.67 0 0.34 0 0 Z " fill="#00113A" transform="translate(227,172)"/>
<path d="" fill="#FFFFFF" transform="translate(0,0)"/>
<path d="" fill="#FFFFFF" transform="translate(0,0)"/>
<path d="" fill="#FFFFFF" transform="translate(0,0)"/>
<path d="" fill="#FFFFFF" transform="translate(0,0)"/>
<path d="" fill="#FFFFFF" transform="translate(0,0)"/>
<path d="" fill="#FFFFFF" transform="translate(0,0)"/>
<path d="" fill="#FFFFFF" transform="translate(0,0)"/>
<path d="" fill="#FFFFFF" transform="translate(0,0)"/>
<path d="" fill="#FFFFFF" transform="translate(0,0)"/>
<path d="" fill="#FFFFFF" transform="translate(0,0)"/>
<path d="" fill="#FFFFFF" transform="translate(0,0)"/>
<path d="" fill="#FFFFFF" transform="translate(0,0)"/>
<path d="" fill="#FFFFFF" transform="translate(0,0)"/>
<path d="" fill="#FFFFFF" transform="translate(0,0)"/>
<path d="" fill="#FFFFFF" transform="translate(0,0)"/>
<path d="" fill="#FFFFFF" transform="translate(0,0)"/>
<path d="" fill="#FFFFFF" transform="translate(0,0)"/>
<path d="" fill="#FFFFFF" transform="translate(0,0)"/>
<path d="" fill="#FFFFFF" transform="translate(0,0)"/>
<path d="" fill="#FFFFFF" transform="translate(0,0)"/>
<path d="" fill="#FFFFFF" transform="translate(0,0)"/>
<path d="" fill="#FFFFFF" transform="translate(0,0)"/>
<path d="" fill="#FFFFFF" transform="translate(0,0)"/>
<path d="" fill="#FFFFFF" transform="translate(0,0)"/>
<path d="" fill="#FFFFFF" transform="translate(0,0)"/>
<path d="" fill="#FFFFFF" transform="translate(0,0)"/>
<path d="" fill="#FFFFFF" transform="translate(0,0)"/>
<path d="" fill="#FFFFFF" transform="translate(0,0)"/>
<path d="" fill="#FFFFFF" transform="translate(0,0)"/>
<path d="" fill="#FFFFFF" transform="translate(0,0)"/>
</svg>
